<svg width="47" height="38" viewBox="0 0 47 38" fill="none" xmlns="http://www.w3.org/2000/svg">
<path d="M0.0320001 0.455997H13.792L26.784 14.6L13.792 28.744H0.0320001L13.088 14.6L0.0320001 0.455997Z" fill="#F5F7FA"/>
<path d="M39.713 37.512C37.793 37.512 36.2143 36.9573 34.977 35.848C33.7823 34.696 33.185 33.288 33.185 31.624C33.185 29.9173 33.7823 28.488 34.977 27.336C36.2143 26.184 37.793 25.608 39.713 25.608C41.5903 25.608 43.1263 26.184 44.321 27.336C45.5583 28.488 46.177 29.9173 46.177 31.624C46.177 33.288 45.5583 34.696 44.321 35.848C43.1263 36.9573 41.5903 37.512 39.713 37.512Z" fill="#D7263D"/>
</svg>
