<svg width="29" height="28" viewBox="0 0 29 28" fill="none" xmlns="http://www.w3.org/2000/svg">
<path id="Vector" d="M25.9916 0H2.62346C1.34658 0 0.230957 0.91875 0.230957 2.18062V25.6006C0.230957 26.8694 1.34658 28 2.62346 28H25.9847C27.2685 28 28.231 26.8619 28.231 25.6006V2.18062C28.2385 0.91875 27.2685 0 25.9916 0ZM8.91033 23.3394H4.89908V10.8675H8.91033V23.3394ZM7.04346 8.97125H7.01471C5.73096 8.97125 4.89971 8.01562 4.89971 6.81938C4.89971 5.60125 5.75283 4.66813 7.06533 4.66813C8.37783 4.66813 9.18096 5.59438 9.20971 6.81938C9.20908 8.01562 8.37783 8.97125 7.04346 8.97125ZM23.5703 23.3394H19.5591V16.52C19.5591 14.8863 18.9753 13.77 17.5241 13.77C16.4153 13.77 15.7591 14.52 15.4672 15.2506C15.3578 15.5131 15.3285 15.8706 15.3285 16.2356V23.3394H11.3172V10.8675H15.3285V12.6031C15.9122 11.7719 16.8241 10.5756 18.946 10.5756C21.5791 10.5756 23.571 12.3113 23.571 16.0531L23.5703 23.3394Z" fill="#F5F7FA"/>
</svg>
