<svg width="29" height="28" viewBox="0 0 29 28" fill="none" xmlns="http://www.w3.org/2000/svg">
<path id="Vector" d="M14.231 0C6.49971 0 0.230957 6.43125 0.230957 14.3563C0.230957 20.7 4.24346 26.075 9.80596 27.975C9.88398 27.992 9.96362 28.0003 10.0435 28C10.5622 28 10.7622 27.6188 10.7622 27.2875C10.7622 26.9438 10.7497 26.0438 10.7435 24.8438C10.2804 24.9523 9.8066 25.0089 9.33096 25.0125C6.63721 25.0125 6.02471 22.9188 6.02471 22.9188C5.38721 21.2625 4.46846 20.8188 4.46846 20.8188C3.24971 19.9625 4.46221 19.9375 4.55596 19.9375H4.56221C5.96846 20.0625 6.70596 21.425 6.70596 21.425C7.40596 22.65 8.34346 22.9938 9.18096 22.9938C9.73473 22.9827 10.2799 22.8549 10.781 22.6188C10.906 21.6938 11.2685 21.0625 11.6685 20.7C8.56221 20.3375 5.29346 19.1063 5.29346 13.6063C5.29346 12.0375 5.83721 10.7563 6.73096 9.75625C6.58721 9.39375 6.10596 7.93125 6.86846 5.95625C6.97074 5.93178 7.07586 5.92127 7.18096 5.925C7.68721 5.925 8.83096 6.11875 10.7185 7.43125C13.0119 6.78957 15.4375 6.78957 17.731 7.43125C19.6185 6.11875 20.7622 5.925 21.2685 5.925C21.3736 5.92127 21.4787 5.93178 21.581 5.95625C22.3435 7.93125 21.8622 9.39375 21.7185 9.75625C22.6122 10.7625 23.156 12.0438 23.156 13.6063C23.156 19.1188 19.881 20.3313 16.7622 20.6875C17.2622 21.1313 17.7122 22.0063 17.7122 23.3438C17.7122 25.2625 17.6935 26.8125 17.6935 27.2813C17.6935 27.6188 17.8872 28 18.406 28C18.4899 28.0004 18.5737 27.992 18.656 27.975C24.2247 26.075 28.231 20.6938 28.231 14.3563C28.231 6.43125 21.9622 0 14.231 0Z" fill="#F5F7FA"/>
</svg>
