<svg width="36" height="36" viewBox="0 0 36 36" fill="none" xmlns="http://www.w3.org/2000/svg">
<path fill-rule="evenodd" clip-rule="evenodd" d="M0 3.00749C0 2.20986 0.316864 1.44489 0.880878 0.880878C1.44489 0.316864 2.20986 0 3.00749 0H32.9924C33.3874 0 33.7785 0.0777962 34.1433 0.228938C34.5082 0.380079 34.8398 0.601604 35.1191 0.880878C35.3983 1.16015 35.6199 1.4917 35.7711 1.85657C35.9221 2.22146 36 2.61254 36 3.00749V32.9924C36 33.3874 35.9221 33.7785 35.7711 34.1433C35.6199 34.5082 35.3983 34.8398 35.1191 35.1191C34.8398 35.3983 34.5082 35.6199 34.1433 35.7711C33.7785 35.9221 33.3874 36 32.9924 36H3.00749C2.20986 36 1.44489 35.683 0.880878 35.1191C0.316864 34.555 0 33.7902 0 32.9924V3.00749ZM14.25 13.725H19.1251V16.1746C19.8277 14.7659 21.6285 13.5 24.3337 13.5C29.5192 13.5 30.75 16.3035 30.75 21.4476V30.975H25.5V22.6192C25.5 19.6898 24.7973 18.0375 23.01 18.0375C20.5312 18.0375 19.5 19.8187 19.5 22.6192V30.975H14.25V13.725ZM5.24999 30.75H10.5V13.5H5.24999V30.75ZM11.25 7.87498C11.25 8.31819 11.1627 8.75707 10.9931 9.16654C10.8235 9.57601 10.5749 9.94807 10.2615 10.2615C9.94807 10.5749 9.57601 10.8235 9.16654 10.9931C8.75707 11.1627 8.31819 11.25 7.87498 11.25C7.43179 11.25 6.99291 11.1627 6.58344 10.9931C6.17395 10.8235 5.80191 10.5749 5.4885 10.2615C5.1751 9.94807 4.92651 9.57601 4.7569 9.16654C4.5873 8.75707 4.49999 8.31819 4.49999 7.87498C4.49999 6.97988 4.85557 6.12144 5.4885 5.4885C6.12144 4.85557 6.97988 4.49999 7.87498 4.49999C8.7701 4.49999 9.62854 4.85557 10.2615 5.4885C10.8944 6.12144 11.25 6.97988 11.25 7.87498Z" fill="#F1FCFD"/>
</svg>
