<svg width="29" height="32" viewBox="0 0 29 32" fill="none" xmlns="http://www.w3.org/2000/svg">
<path d="M2.78399 28.8011L0.217133 0H28.432L25.8617 28.7966L14.3074 32L2.78399 28.8011Z" fill="#1572B6"/>
<path d="M14.3246 29.5519L23.6617 26.9634L25.8583 2.35535H14.3246V29.5519Z" fill="#33A9DC"/>
<path d="M14.3246 12.7899H18.9988L19.3211 9.17271H14.3246V5.64014H14.3371H23.1817L23.0971 6.58757L22.2297 16.3224H14.3246V12.7899Z" fill="white"/>
<path d="M14.3462 21.9634L14.3302 21.968L10.3965 20.9052L10.1451 18.088H8.2331H6.59882L7.09367 23.6343L14.3291 25.6434L14.3462 25.6389V21.9634Z" fill="#EBEBEB"/>
<path d="M18.6982 16.1726L18.2731 20.9029L14.3336 21.9658V25.6412L21.5748 23.6343L21.6285 23.0378L22.2422 16.1726H18.6982Z" fill="white"/>
<path d="M14.3371 5.64014V7.83442V9.16357V9.17271H5.81598H5.80455L5.73369 8.37842L5.57255 6.58757L5.48798 5.64014H14.3371Z" fill="#EBEBEB"/>
<path d="M14.3246 12.7898V14.9841V16.3132V16.3224H10.4514H10.44L10.3691 15.5281L10.2091 13.7372L10.1246 12.7898H14.3246Z" fill="#EBEBEB"/>
</svg>
