<svg width="327" height="308" viewBox="0 0 327 308" fill="none" xmlns="http://www.w3.org/2000/svg">
<g clip-path="url(#clip0_19_877)">
<path d="M237.403 174.702V259.474L251.631 282.584L252.714 284.341H308.853L309.988 174.702H237.403Z" fill="#CDC5C5"/>
<path opacity="0.1" d="M237.403 174.702V259.474L251.631 282.584L252.504 174.702H237.403Z" fill="#00145C"/>
<path d="M101.875 172.441V257.214L87.6469 280.323L86.5641 282.08H30.4246L29.2903 172.441H101.875Z" fill="#CDC5C5"/>
<path opacity="0.1" d="M101.875 172.441V257.214L87.6468 280.323L86.7737 172.441H101.875Z" fill="#00145C"/>
<path d="M327 170.746V175.832H21.9182V168.485L50.2714 153.791H302.049L327 170.746Z" fill="#CDC5C5"/>
<path opacity="0.1" d="M327 170.746V175.832H21.9182V168.485L327 170.746Z" fill="#00145C"/>
<path d="M65.5825 196.177H51.9726L46.302 192.221H71.8201L65.5825 196.177Z" fill="#00405C"/>
<path d="M65.5825 212.567H51.9726L46.302 208.611H71.8201L65.5825 212.567Z" fill="#00405C"/>
<path d="M65.5825 235.738H51.9726L46.302 231.782H71.8201L65.5825 235.738Z" fill="#00405C"/>
<path d="M65.5825 258.909H51.9726L46.302 254.953H71.8201L65.5825 258.909Z" fill="#00405C"/>
<path d="M273.696 198.438H287.305L292.976 194.482H267.458L273.696 198.438Z" fill="#00405C"/>
<path d="M273.696 214.827H287.305L292.976 210.871H267.458L273.696 214.827Z" fill="#00405C"/>
<path d="M273.696 237.999H287.305L292.976 234.043H267.458L273.696 237.999Z" fill="#00405C"/>
<path d="M273.696 261.17H287.305L292.976 257.214H267.458L273.696 261.17Z" fill="#00405C"/>
<path d="M282.964 55.7597H168.39C167.821 55.7596 167.257 55.8712 166.731 56.0882C166.206 56.3052 165.728 56.6233 165.326 57.0244C164.923 57.4254 164.604 57.9015 164.386 58.4254C164.169 58.9494 164.057 59.511 164.057 60.0781V136.998C164.057 137.565 164.169 138.126 164.386 138.65C164.604 139.174 164.923 139.65 165.326 140.051C165.728 140.452 166.206 140.77 166.731 140.987C167.257 141.204 167.821 141.316 168.39 141.316H211.883L210.253 151.684C210.253 151.684 200.941 156.615 207.489 156.76C214.037 156.905 244.883 156.76 244.883 156.76C244.883 156.76 250.849 156.76 241.391 151.539L239.858 141.316H282.964C283.533 141.316 284.096 141.204 284.622 140.987C285.148 140.77 285.625 140.452 286.028 140.051C286.43 139.65 286.749 139.174 286.967 138.65C287.185 138.126 287.297 137.565 287.297 136.998V60.0781C287.297 59.511 287.185 58.9494 286.967 58.4254C286.749 57.9015 286.43 57.4254 286.028 57.0244C285.625 56.6233 285.148 56.3052 284.622 56.0882C284.096 55.8713 283.533 55.7596 282.964 55.7597Z" fill="#00405C"/>
<path d="M283.15 60.3275H168.203V124.422H283.15V60.3275Z" fill="#FFF5F5"/>
<path d="M225.676 59.0233C226.078 59.0233 226.404 58.6985 226.404 58.2978C226.404 57.8971 226.078 57.5723 225.676 57.5723C225.275 57.5723 224.949 57.8971 224.949 58.2978C224.949 58.6985 225.275 59.0233 225.676 59.0233Z" fill="#FFF5F5"/>
<path d="M225.676 138.198C227.203 138.198 228.441 136.965 228.441 135.443C228.441 133.921 227.203 132.688 225.676 132.688C224.15 132.688 222.912 133.921 222.912 135.443C222.912 136.965 224.15 138.198 225.676 138.198Z" fill="#FFF5F5"/>
<path d="M221.369 164.59V166.041H143.089V164.88L143.196 164.59L145.126 159.37H219.768L221.369 164.59Z" fill="#00405C"/>
<path d="M251.493 163.171C251.351 163.778 250.813 164.419 249.596 165.025C245.231 167.2 236.355 164.445 236.355 164.445C236.355 164.445 229.517 163.285 229.517 160.24C229.709 160.109 229.909 159.99 230.116 159.885C231.952 158.917 238.036 156.529 248.826 159.986C249.62 160.234 250.33 160.698 250.876 161.325C251.118 161.562 251.3 161.853 251.408 162.174C251.515 162.495 251.544 162.836 251.493 163.171Z" fill="#00405C"/>
<path opacity="0.1" d="M251.493 163.171C246.15 165.211 241.388 165.363 236.501 161.98C234.652 160.618 232.414 159.884 230.116 159.885C231.951 158.917 238.036 156.529 248.825 159.986C249.62 160.234 250.33 160.698 250.876 161.325C251.118 161.562 251.3 161.853 251.407 162.174C251.515 162.495 251.544 162.836 251.493 163.171Z" fill="#00145C"/>
<path d="M244.794 161.981C245.839 161.981 246.686 161.721 246.686 161.4C246.686 161.08 245.839 160.82 244.794 160.82C243.749 160.82 242.903 161.08 242.903 161.4C242.903 161.721 243.749 161.981 244.794 161.981Z" fill="#FFF5F5"/>
<path opacity="0.1" d="M221.369 164.59V166.041H143.089V164.881L143.196 164.59H221.369Z" fill="#00145C"/>
<path d="M43.5246 0.561526C42.7302 0.496518 41.9346 0.673631 41.2435 1.0694C40.5648 1.53259 40.1371 2.34405 39.7004 3.09916C38.0311 6.02074 35.7711 8.56496 33.0637 10.5706C31.0916 12.0104 28.5845 13.8057 28.9219 16.4603C29.0999 17.337 29.4248 18.1775 29.8831 18.9465C31.7023 22.6065 36.6667 25.4349 36.1784 29.6112C37.9859 26.5955 35.5683 25.1044 37.3757 22.0888C38.2365 20.6526 39.7317 19.0315 41.0313 19.9334C41.4665 20.2354 41.7522 20.777 42.2052 21.042C43.2863 21.6742 44.4364 20.4655 45.3934 19.6093C48.6933 16.6571 53.386 17.4305 57.4924 18.3504C59.431 18.7846 61.5603 19.3544 62.7063 21.2009C64.213 23.6288 61.2747 26.2509 60.5324 28.9959C60.4717 29.2298 60.4689 29.4748 60.524 29.71C60.5791 29.9453 60.6906 30.1637 60.8489 30.3467C61.0072 30.5296 61.2076 30.6716 61.4329 30.7605C61.6583 30.8495 61.9019 30.8827 62.143 30.8573C63.3751 30.7362 64.8347 30.6369 64.9076 30.098C66.4578 30.153 68.3573 29.9781 69.0215 28.3693C69.2245 27.7328 69.3318 27.0698 69.3399 26.402C69.5837 23.6997 70.7345 21.2343 71.4969 18.6623C72.2593 16.0903 72.5908 13.0761 71.3042 10.7958C70.8451 10.0371 70.2772 9.34922 69.6186 8.75403C62.3175 1.71234 52.7182 0.551074 43.5246 0.561526Z" fill="#393737"/>
<path d="M37.7664 34.8862C37.7664 34.8862 39.3543 48.0737 33.5321 49.1287C27.71 50.1837 38.825 68.1187 38.825 68.1187L65.2893 71.2837L58.9378 50.1837C58.9378 50.1837 54.7036 48.6012 57.35 38.0512C59.9964 27.5013 37.7664 34.8862 37.7664 34.8862Z" fill="#FFB8B8"/>
<path d="M21.6233 261.447L23.7406 290.46H34.8552L31.6799 261.447H21.6233Z" fill="#FFB8B8"/>
<path d="M103.133 206.587L104.721 230.852L116.895 225.577L112.131 205.532L103.133 206.587Z" fill="#FFB8B8"/>
<path d="M13.6838 150.672C13.6838 150.672 14.2131 181.267 17.3889 191.29C20.5646 201.312 20.0353 201.84 19.506 203.422C18.9767 205.005 18.4474 203.95 18.4474 206.587C18.4474 209.225 17.3889 250.897 18.4474 254.59C19.506 258.282 15.2717 264.612 18.4474 265.14C21.6231 265.667 36.4431 265.14 36.9724 261.975C37.5017 258.81 32.7381 257.755 34.8553 255.645C36.9724 253.535 40.1481 210.28 40.1481 210.28L47.5581 180.212L61.3196 164.387H90.4302L99.4281 199.202C99.4281 199.202 95.7231 209.225 98.3695 209.225C101.016 209.225 116.895 212.39 116.895 200.785C116.895 189.18 111.602 154.892 110.543 153.837C109.485 152.782 111.072 149.09 109.485 147.507C107.897 145.925 89.3717 134.847 82.491 132.737C75.6103 130.627 65.9578 128.116 65.9578 128.116L13.6838 150.672Z" fill="#393737"/>
<path d="M116.895 221.357C116.895 221.357 108.955 218.72 105.25 226.632C101.545 234.545 103.133 236.655 103.133 236.655C103.133 236.655 115.307 240.875 117.424 238.765C118.345 237.847 121.27 237.528 124.281 237.461C128.866 237.358 130.086 230.892 125.755 229.387C125.626 229.342 125.495 229.303 125.363 229.27C121.129 228.215 116.895 221.357 116.895 221.357Z" fill="#393737"/>
<path d="M49.6754 43.59C58.4449 43.59 65.554 36.5049 65.554 27.765C65.554 19.0251 58.4449 11.94 49.6754 11.94C40.906 11.94 33.7969 19.0251 33.7969 27.765C33.7969 36.5049 40.906 43.59 49.6754 43.59Z" fill="#FFB8B8"/>
<path d="M29.0332 55.7225C29.0332 55.7225 54.9682 60.9975 61.3196 52.5575C67.671 44.1175 70.3174 76.295 70.3174 76.295L73.4932 110.055L68.7296 128.517C68.7296 128.517 43.8532 148.562 35.9139 150.145C27.9746 151.727 15.801 152.782 15.801 152.782C15.801 152.782 19.5061 94.2299 19.5061 93.1749C19.5061 92.1199 29.0332 55.7225 29.0332 55.7225Z" fill="#4D6DE3"/>
<path d="M36.9206 45.8294C36.9206 45.8294 31.1502 42.535 29.5624 45.7C27.9745 48.865 13.1545 56.7775 11.5667 56.7775C9.97882 56.7775 14.7424 100.56 12.6252 105.835C10.5081 111.11 0.45168 149.617 6.27382 152.782C12.096 155.947 7.86168 149.617 13.6838 157.53C19.506 165.442 48.0874 165.442 49.6752 162.277C51.2631 159.112 36.9724 135.375 39.6188 113.22C42.2652 91.065 46.4995 60.47 42.7945 56.25C39.0895 52.03 36.9206 45.8294 36.9206 45.8294Z" fill="#393737"/>
<path d="M56.0271 49.3925L56.7643 46.8639C56.7643 46.8639 78.7864 54.14 79.845 58.8875C80.9035 63.635 80.3742 96.8674 76.6692 99.5049C72.9642 102.142 67.6714 106.362 71.3764 112.692C75.0814 119.022 79.3157 125.88 82.4914 126.407C85.6671 126.935 91.4892 130.627 89.9014 134.32C88.3135 138.012 69.2592 131.155 69.2592 131.155C69.2592 131.155 56.5564 121.66 57.0857 106.89C57.615 92.1199 56.0271 49.3925 56.0271 49.3925Z" fill="#393737"/>
<path d="M74.5517 111.637L61.8488 135.375C61.8488 135.375 43.3238 154.365 53.9095 156.475C64.4953 158.585 70.3174 139.067 70.3174 139.067L84.0788 119.55L74.5517 111.637Z" fill="#FFB8B8"/>
<path d="M44.2983 4.70214C43.6582 4.65488 43.0172 4.7788 42.4413 5.0611C41.9206 5.4401 41.4915 5.93024 41.1852 6.49573C39.7735 8.61214 37.9332 10.4109 35.7826 11.7765C34.1773 12.7942 32.1364 14.063 32.411 15.9393C32.5601 16.5684 32.8255 17.1643 33.1935 17.6965C34.6795 20.3095 35.2711 23.3338 34.8787 26.3118L39.2928 19.9175C39.9935 18.9024 41.2107 17.7566 42.2686 18.3941C42.6229 18.6075 42.8554 18.9903 43.2243 19.1776C44.1043 19.6245 45.0405 18.7702 45.8195 18.165C48.5058 16.0784 52.3259 16.625 55.6686 17.2752C57.2467 17.5821 58.9801 17.9848 59.913 19.29C61.4632 21.4589 59.8445 24.5928 60.7492 27.0984C61.0025 26.9217 61.2176 26.6961 61.3818 26.435C61.5459 26.1739 61.6558 25.8826 61.7049 25.5783C62.9669 25.6172 64.5131 25.4936 65.0538 24.3565C65.2183 23.9109 65.3059 23.4408 65.313 22.966C65.5115 21.056 66.4483 19.3135 67.0689 17.4957C67.6895 15.6778 67.9594 13.5474 66.912 11.9356C66.5289 11.3895 66.0665 10.9032 65.5399 10.4925C59.5965 5.51552 51.7823 4.69476 44.2983 4.70214Z" fill="#393737"/>
<path d="M74.5519 56.7775L79.4833 58.082C79.4833 58.082 90.9598 87.3724 88.3133 107.417C85.6669 127.462 84.079 123.242 84.079 123.242C84.079 123.242 79.8448 113.747 70.3176 115.857L74.5519 56.7775Z" fill="#393737"/>
<path d="M22.3563 286.625C21.08 288.354 21.3359 290.825 20.2053 292.652C19.2252 294.235 17.3783 295.065 16.1525 296.468C15.7613 296.934 15.4126 297.434 15.1105 297.962C13.9734 299.86 13.0491 302.293 14.169 304.202C15.0699 305.737 16.9636 306.337 18.7003 306.746C20.8954 307.263 23.1761 307.676 25.3965 307.281C27.6169 306.886 29.787 305.531 30.5787 303.426C30.7343 302.897 30.9193 302.377 31.1328 301.868C32.3363 299.507 36.1112 299.481 37.3429 297.134C38.2049 295.492 37.4125 293.507 36.6205 291.83L34.2015 286.708C33.3987 285.008 30.1444 285.986 28.4479 285.579C26.2352 285.047 23.9481 284.462 22.3563 286.625Z" fill="#393737"/>
<path d="M4.68604 122.187L26.916 156.475C26.916 156.475 40.6775 173.882 44.9117 165.97C49.146 158.057 30.0917 144.87 30.0917 144.87L15.801 118.495L4.68604 122.187Z" fill="#FFB8B8"/>
<path d="M15.8011 57.8325L11.5668 56.7775C11.5668 56.7775 3.09821 59.415 0.981074 70.4924C-1.13607 81.5699 0.451786 125.88 3.09821 126.407C5.74464 126.935 16.1689 118.692 17.8375 120.44C19.5061 122.187 14.2132 113.22 15.801 108.472C17.3889 103.725 15.8011 57.8325 15.8011 57.8325Z" fill="#393737"/>
<path d="M214.797 81.3784H201.117V84.6606H214.797V81.3784Z" fill="#4D6DE3"/>
<path d="M262.17 81.3784H257.357V84.6606H262.17V81.3784Z" fill="#4D6DE3"/>
<path d="M271.797 81.3784H266.983V84.6606H271.797V81.3784Z" fill="#4D6DE3"/>
<path d="M252.29 81.3784H219.61V84.6606H252.29V81.3784Z" fill="#4D6DE3"/>
<path d="M197.57 102.587H183.89V105.869H197.57V102.587Z" fill="#4D6DE3"/>
<path d="M244.943 102.587H240.13V105.869H244.943V102.587Z" fill="#4D6DE3"/>
<path d="M254.57 102.587H249.757V105.869H254.57V102.587Z" fill="#4D6DE3"/>
<path d="M235.063 102.587H202.384V105.869H235.063V102.587Z" fill="#4D6DE3"/>
<path d="M254.063 88.7003H240.384V91.9825H254.063V88.7003Z" fill="#4D6DE3"/>
<path d="M272.557 88.7003H258.877V91.9825H272.557V88.7003Z" fill="#4D6DE3"/>
<path d="M188.704 88.7003H183.89V91.9825H188.704V88.7003Z" fill="#4D6DE3"/>
<path d="M198.33 88.7003H193.517V91.9825H198.33V88.7003Z" fill="#4D6DE3"/>
<path d="M235.823 88.7003H203.144V91.9825H235.823V88.7003Z" fill="#4D6DE3"/>
<path d="M225.69 95.7696H212.01V99.0518H225.69V95.7696Z" fill="#4D6DE3"/>
<path d="M207.197 95.7696H193.517V99.0518H207.197V95.7696Z" fill="#4D6DE3"/>
<path d="M188.704 95.7696H183.89V99.0518H188.704V95.7696Z" fill="#4D6DE3"/>
<path d="M272.556 95.7696H267.743V99.0518H272.556V95.7696Z" fill="#4D6DE3"/>
<path d="M262.93 95.7696H230.25V99.0518H262.93V95.7696Z" fill="#4D6DE3"/>
</g>
<defs>
<clipPath id="clip0_19_877">
<rect width="327" height="306.877" fill="white" transform="translate(0 0.561539)"/>
</clipPath>
</defs>
</svg>
