<svg width="29" height="32" viewBox="0 0 29 32" fill="none" xmlns="http://www.w3.org/2000/svg">
<path d="M2.568 28.8011L0 0H28.2171L25.6457 28.7966L14.0914 32L2.568 28.8011Z" fill="#E44F26"/>
<path d="M14.1086 29.552L23.4457 26.9635L25.6423 2.35547H14.1086V29.552Z" fill="#F1662A"/>
<path d="M14.1086 13.0367H9.43429L9.11201 9.41953H14.1086V5.88696H14.096H5.25143L5.33601 6.83553L6.20343 16.5692H14.1086V13.0367Z" fill="#EBEBEB"/>
<path d="M14.1086 22.2102L14.0926 22.2148L10.1589 21.1531L9.90746 18.3359H7.99546H6.36118L6.85603 23.8811L14.0926 25.8902L14.1086 25.8857V22.2102Z" fill="#EBEBEB"/>
<path d="M14.096 13.0365V16.5691H18.4458L18.0366 21.1508L14.096 22.2136V25.8891L21.3383 23.8811L21.3909 23.2845L22.2206 13.9851L22.3075 13.0365H21.3555H14.096Z" fill="white"/>
<path d="M14.096 5.88696V8.08125V9.41153V9.41953H22.6172H22.6286L22.6994 8.62639L22.8606 6.83553L22.9452 5.88696H14.096Z" fill="white"/>
</svg>
