<svg width="33" height="32" viewBox="0 0 33 32" fill="none" xmlns="http://www.w3.org/2000/svg">
<path d="M0.431885 0H32.4319V32H0.431885V0Z" fill="#F7DF1E"/>
<path d="M8.84575 26.7415L11.2946 25.2595C11.767 26.0971 12.1968 26.8058 13.2277 26.8058C14.2158 26.8058 14.8388 26.4193 14.8388 24.9158V14.691H17.846V24.9583C17.846 28.073 16.0203 29.4907 13.3566 29.4907C10.9509 29.4907 9.55453 28.2448 8.8457 26.7412" fill="#393737"/>
<path d="M19.4795 26.4193L21.9281 25.0016C22.5726 26.0543 23.4104 26.8275 24.8924 26.8275C26.1384 26.8275 26.933 26.2045 26.933 25.3453C26.933 24.3142 26.1168 23.949 24.742 23.3478L23.9904 23.0253C21.8208 22.1018 20.3815 20.9419 20.3815 18.4931C20.3815 16.2377 22.0999 14.5192 24.7851 14.5192C26.6969 14.5192 28.0716 15.1851 29.0596 16.9251L26.7182 18.4286C26.2026 17.505 25.6443 17.1399 24.7851 17.1399C23.9044 17.1399 23.3459 17.6984 23.3459 18.4286C23.3459 19.3308 23.9044 19.6961 25.1931 20.2546L25.9449 20.5768C28.5011 21.6723 29.9403 22.7892 29.9403 25.3023C29.9403 28.009 27.8138 29.491 24.9569 29.491C22.1645 29.491 20.3601 28.1593 19.4795 26.4193Z" fill="#393737"/>
</svg>
