<svg width="29" height="32" viewBox="0 0 29 32" fill="none" xmlns="http://www.w3.org/2000/svg">
<path d="M2.568 28.8011L0 0H28.2171L25.6457 28.7966L14.0914 32L2.568 28.8011Z" fill="#E44F26"/>
<path d="M14.1086 29.552L23.4458 26.9635L25.6424 2.35547H14.1086V29.552Z" fill="#F1662A"/>
<path d="M14.1086 13.0367H9.43432L9.11204 9.41953H14.1086V5.88696H14.096H5.25146L5.33604 6.83553L6.20346 16.5692H14.1086V13.0367Z" fill="#EBEBEB"/>
<path d="M14.1085 22.2102L14.0925 22.2148L10.1588 21.1531L9.90737 18.3359H7.99537H6.36108L6.85594 23.8811L14.0925 25.8902L14.1085 25.8857V22.2102Z" fill="#EBEBEB"/>
<path d="M14.0959 13.0365V16.5691H18.4457L18.0365 21.1508L14.0959 22.2136V25.8891L21.3382 23.8811L21.3908 23.2845L22.2205 13.9851L22.3074 13.0365H21.3554H14.0959Z" fill="white"/>
<path d="M14.0959 5.88696V8.08125V9.41153V9.41953H22.6171H22.6285L22.6994 8.62639L22.8605 6.83553L22.9451 5.88696H14.0959Z" fill="white"/>
</svg>
