<svg width="29" height="32" viewBox="0 0 29 32" fill="none" xmlns="http://www.w3.org/2000/svg">
<path d="M2.7839 28.8011L0.217041 0H28.4319L25.8616 28.7966L14.3073 32L2.7839 28.8011Z" fill="#1572B6"/>
<path d="M14.3245 29.5519L23.6616 26.9634L25.8582 2.35535H14.3245V29.5519Z" fill="#33A9DC"/>
<path d="M14.3245 12.7899H18.9987L19.321 9.17271H14.3245V5.64014H14.337H23.1816L23.097 6.58757L22.2296 16.3224H14.3245V12.7899Z" fill="white"/>
<path d="M14.3461 21.9634L14.3301 21.968L10.3963 20.9052L10.1449 18.088H8.23292H6.59863L7.09349 23.6343L14.3289 25.6434L14.3461 25.6389V21.9634Z" fill="#EBEBEB"/>
<path d="M18.6981 16.1726L18.2729 20.9029L14.3335 21.9658V25.6412L21.5746 23.6343L21.6284 23.0378L22.2421 16.1726H18.6981Z" fill="white"/>
<path d="M14.3369 5.64014V7.83442V9.16357V9.17271H5.81579H5.80436L5.73351 8.37842L5.57236 6.58757L5.48779 5.64014H14.3369Z" fill="#EBEBEB"/>
<path d="M14.3245 12.7898V14.9841V16.3132V16.3224H10.4514H10.4399L10.3691 15.5281L10.2091 13.7372L10.1245 12.7898H14.3245Z" fill="#EBEBEB"/>
</svg>
