<svg width="33" height="32" viewBox="0 0 33 32" fill="none" xmlns="http://www.w3.org/2000/svg">
<path d="M0.432007 0H32.432V32H0.432007V0Z" fill="#F7DF1E"/>
<path d="M8.84597 26.7415L11.2948 25.2595C11.7673 26.0971 12.197 26.8058 13.2279 26.8058C14.216 26.8058 14.839 26.4193 14.839 24.9158V14.691H17.8462V24.9583C17.8462 28.073 16.0205 29.4907 13.3568 29.4907C10.9512 29.4907 9.55474 28.2448 8.84592 26.7412" fill="#393737"/>
<path d="M19.4796 26.4193L21.9282 25.0016C22.5727 26.0543 23.4105 26.8275 24.8925 26.8275C26.1386 26.8275 26.9331 26.2045 26.9331 25.3453C26.9331 24.3142 26.1169 23.949 24.7421 23.3478L23.9905 23.0253C21.8209 22.1018 20.3817 20.9419 20.3817 18.4931C20.3817 16.2377 22.1001 14.5192 24.7852 14.5192C26.697 14.5192 28.0717 15.1851 29.0597 16.9251L26.7183 18.4286C26.2028 17.505 25.6444 17.1399 24.7853 17.1399C23.9046 17.1399 23.346 17.6984 23.346 18.4286C23.346 19.3308 23.9046 19.6961 25.1932 20.2546L25.945 20.5768C28.5012 21.6723 29.9404 22.7892 29.9404 25.3023C29.9404 28.009 27.8139 29.491 24.9571 29.491C22.1646 29.491 20.3602 28.1593 19.4796 26.4193Z" fill="#393737"/>
</svg>
