<svg width="400" height="377" viewBox="0 0 400 377" fill="none" xmlns="http://www.w3.org/2000/svg">
<g clip-path="url(#clip0_19_676)">
<path d="M290.402 213.932V318.076L307.806 346.466L309.131 348.625H377.803L379.19 213.932H290.402Z" fill="#CDC5C5"/>
<path opacity="0.1" d="M290.402 213.932V318.076L307.806 346.466L308.874 213.932H290.402Z" fill="#00145C"/>
<path d="M124.617 211.155V315.299L107.213 343.689L105.889 345.847H37.2166L35.8291 211.155H124.617Z" fill="#CDC5C5"/>
<path opacity="0.1" d="M124.617 211.155V315.299L107.213 343.689L106.145 211.155H124.617Z" fill="#00145C"/>
<path d="M400 209.072V215.321H26.8115V206.295L61.4943 188.243H369.479L400 209.072Z" fill="#CDC5C5"/>
<path opacity="0.1" d="M400 209.072V215.321H26.8115V206.295L400 209.072Z" fill="#00145C"/>
<path d="M80.2235 240.315H63.5753L56.6388 235.455H87.8536L80.2235 240.315Z" fill="#00405C"/>
<path d="M80.2235 260.45H63.5753L56.6388 255.59H87.8536L80.2235 260.45Z" fill="#00405C"/>
<path d="M80.2235 288.916H63.5753L56.6388 284.055H87.8536L80.2235 288.916Z" fill="#00405C"/>
<path d="M80.2235 317.382H63.5753L56.6388 312.522H87.8536L80.2235 317.382Z" fill="#00405C"/>
<path d="M334.796 243.092H351.444L358.381 238.232H327.166L334.796 243.092Z" fill="#00405C"/>
<path d="M334.796 263.227H351.444L358.381 258.367H327.166L334.796 263.227Z" fill="#00405C"/>
<path d="M334.796 291.693H351.444L358.381 286.833H327.166L334.796 291.693Z" fill="#00405C"/>
<path d="M334.796 320.159H351.444L358.381 315.299H327.166L334.796 320.159Z" fill="#00405C"/>
<path d="M346.133 67.8112H205.981C205.285 67.8111 204.596 67.9483 203.953 68.2149C203.31 68.4815 202.725 68.8722 202.233 69.3649C201.741 69.8575 201.351 70.4424 201.084 71.0861C200.818 71.7298 200.681 72.4197 200.681 73.1164V167.612C200.681 168.309 200.818 168.999 201.084 169.643C201.351 170.287 201.741 170.871 202.233 171.364C202.725 171.857 203.31 172.247 203.953 172.514C204.596 172.781 205.285 172.918 205.981 172.918H259.184L257.191 185.655C257.191 185.655 245.8 191.712 253.809 191.89C261.818 192.068 299.551 191.89 299.551 191.89C299.551 191.89 306.848 191.89 295.279 185.477L293.404 172.918H346.133C346.829 172.918 347.518 172.781 348.161 172.514C348.805 172.247 349.389 171.857 349.881 171.364C350.373 170.871 350.764 170.287 351.03 169.643C351.296 168.999 351.433 168.309 351.433 167.612V73.1164C351.433 72.4197 351.296 71.7298 351.03 71.0861C350.764 70.4424 350.373 69.8575 349.881 69.3649C349.389 68.8722 348.805 68.4815 348.161 68.2149C347.518 67.9483 346.829 67.8111 346.133 67.8112Z" fill="#00405C"/>
<path d="M346.361 73.4229H205.753V152.164H346.361V73.4229Z" fill="#FFF5F5"/>
<path d="M276.057 71.8195C276.549 71.8195 276.947 71.4207 276.947 70.9288C276.947 70.4368 276.549 70.0381 276.057 70.0381C275.566 70.0381 275.167 70.4368 275.167 70.9288C275.167 71.4207 275.566 71.8195 276.057 71.8195Z" fill="#FFF5F5"/>
<path d="M276.057 169.088C277.925 169.088 279.439 167.572 279.439 165.703C279.439 163.833 277.925 162.318 276.057 162.318C274.189 162.318 272.675 163.833 272.675 165.703C272.675 167.572 274.189 169.088 276.057 169.088Z" fill="#FFF5F5"/>
<path d="M270.788 201.51V203.292H175.032V201.867L175.164 201.51L177.524 195.097H268.83L270.788 201.51Z" fill="#00405C"/>
<path d="M307.637 199.766C307.463 200.513 306.804 201.3 305.316 202.045C299.977 204.717 289.12 201.332 289.12 201.332C289.12 201.332 280.754 199.907 280.754 196.166C280.989 196.005 281.234 195.859 281.488 195.729C283.733 194.541 291.176 191.607 304.374 195.854C305.346 196.159 306.214 196.729 306.882 197.499C307.178 197.79 307.401 198.148 307.532 198.542C307.663 198.936 307.699 199.355 307.637 199.766Z" fill="#00405C"/>
<path opacity="0.1" d="M307.637 199.766C301.102 202.273 295.276 202.46 289.298 198.304C287.037 196.631 284.299 195.728 281.488 195.729C283.733 194.541 291.176 191.607 304.374 195.854C305.346 196.159 306.215 196.729 306.882 197.499C307.178 197.79 307.401 198.148 307.532 198.542C307.663 198.936 307.699 199.355 307.637 199.766Z" fill="#00145C"/>
<path d="M299.443 198.304C300.721 198.304 301.757 197.985 301.757 197.591C301.757 197.197 300.721 196.878 299.443 196.878C298.165 196.878 297.129 197.197 297.129 197.591C297.129 197.985 298.165 198.304 299.443 198.304Z" fill="#FFF5F5"/>
<path opacity="0.1" d="M270.788 201.51V203.292H175.032V201.867L175.164 201.51H270.788Z" fill="#00145C"/>
<path d="M53.2413 6.97076e-05C52.2695 -0.0797931 51.2964 0.137791 50.4509 0.62399C49.6207 1.19302 49.0975 2.18991 48.5634 3.11757C46.5214 6.70675 43.7569 9.83233 40.445 12.2963C38.0327 14.0651 34.9659 16.2706 35.3786 19.5318C35.5963 20.6088 35.9938 21.6413 36.5544 22.5861C38.7798 27.0824 44.8524 30.5571 44.2551 35.6878C46.466 31.983 43.5087 30.1511 45.7197 26.4464C46.7726 24.6821 48.6017 22.6905 50.1914 23.7985C50.7236 24.1695 51.0732 24.8349 51.6274 25.1604C52.9498 25.9371 54.3567 24.4522 55.5273 23.4004C59.5638 19.7735 65.3041 20.7237 70.3272 21.8537C72.6986 22.3872 75.3033 23.0872 76.7051 25.3557C78.5482 28.3384 74.954 31.5597 74.0458 34.9318C73.9717 35.2192 73.9682 35.5202 74.0356 35.8092C74.1031 36.0982 74.2394 36.3665 74.4331 36.5913C74.6267 36.816 74.8718 36.9905 75.1475 37.0997C75.4232 37.209 75.7212 37.2498 76.016 37.2186C77.5232 37.0698 79.3087 36.9478 79.3979 36.2858C81.2941 36.3534 83.6177 36.1385 84.4302 34.1621C84.6785 33.3801 84.8097 32.5657 84.8197 31.7452C85.1179 28.4254 86.5256 25.3967 87.4582 22.237C88.3908 19.0773 88.7962 15.3743 87.2225 12.5729C86.6608 11.6408 85.9662 10.7958 85.1605 10.0646C76.2296 1.41385 64.4873 -0.0127713 53.2413 6.97076e-05Z" fill="#393737"/>
<path d="M46.1975 42.1681C46.1975 42.1681 48.1398 58.369 41.0179 59.6651C33.896 60.9612 47.4924 82.9944 47.4924 82.9944L79.8646 86.8826L72.0953 60.9611C72.0953 60.9611 66.9157 59.017 70.1529 46.0563C73.3902 33.0956 46.1975 42.1681 46.1975 42.1681Z" fill="#FFB8B8"/>
<path d="M26.4503 320.499L29.0404 356.142H42.6362L38.752 320.499H26.4503Z" fill="#FFB8B8"/>
<path d="M126.157 253.104L128.099 282.913L142.991 276.433L137.163 251.808L126.157 253.104Z" fill="#FFB8B8"/>
<path d="M16.7387 184.412C16.7387 184.412 17.3862 221.998 21.2709 234.311C25.1556 246.623 24.5081 247.271 23.8606 249.216C23.2132 251.16 22.5658 249.864 22.5658 253.104C22.5658 256.344 21.2709 307.539 22.5658 312.075C23.8606 316.611 18.6811 324.388 22.5658 325.036C26.4504 325.684 44.5789 325.036 45.2263 321.148C45.8737 317.259 40.0468 315.963 42.6365 313.371C45.2263 310.779 49.111 257.64 49.111 257.64L58.1752 220.702L75.0087 201.261H110.618L121.625 244.031C121.625 244.031 117.093 256.344 120.33 256.344C123.567 256.344 142.99 260.232 142.99 245.975C142.99 231.719 136.516 189.596 135.221 188.3C133.926 187.004 135.868 182.468 133.926 180.524C131.984 178.58 109.323 164.971 100.906 162.379C92.4897 159.787 80.6824 156.701 80.6824 156.701L16.7387 184.412Z" fill="#393737"/>
<path d="M142.99 271.249C142.99 271.249 133.279 268.009 128.747 277.729C124.214 287.45 126.157 290.042 126.157 290.042C126.157 290.042 141.048 295.226 143.638 292.634C144.765 291.506 148.342 291.114 152.025 291.032C157.634 290.906 159.127 282.963 153.829 281.113C153.671 281.058 153.511 281.01 153.349 280.969C148.17 279.673 142.99 271.249 142.99 271.249Z" fill="#393737"/>
<path d="M60.7649 52.8607C71.4921 52.8607 80.1883 44.1566 80.1883 33.4196C80.1883 22.6826 71.4921 13.9785 60.7649 13.9785C50.0377 13.9785 41.3416 22.6826 41.3416 33.4196C41.3416 44.1566 50.0377 52.8607 60.7649 52.8607Z" fill="#FFB8B8"/>
<path d="M35.5146 67.7655C35.5146 67.7655 67.2394 74.2459 75.0087 63.8773C82.778 53.5087 86.0153 93.0389 86.0153 93.0389L89.8999 134.513L84.0729 157.194C84.0729 157.194 53.643 181.82 43.9314 183.764C34.2197 185.708 19.3285 187.004 19.3285 187.004C19.3285 187.004 23.8606 115.072 23.8606 113.776C23.8606 112.48 35.5146 67.7655 35.5146 67.7655Z" fill="#4D6DE3"/>
<path d="M45.1629 55.6118C45.1629 55.6118 38.1044 51.5646 36.1621 55.4528C34.2198 59.3411 16.0913 69.0616 14.149 69.0616C12.2067 69.0616 18.0337 122.849 15.4439 129.329C12.8541 135.809 0.552664 183.116 7.67455 187.004C14.7964 190.892 9.61688 183.116 16.7388 192.836C23.8607 202.557 58.8226 202.557 60.765 198.669C62.7073 194.781 45.2263 165.619 48.4635 138.401C51.7008 111.184 56.8803 73.5979 52.3482 68.4136C47.8161 63.2293 45.1629 55.6118 45.1629 55.6118Z" fill="#393737"/>
<path d="M68.5343 59.9891L69.4361 56.8827C69.4361 56.8827 96.3744 65.8214 97.6693 71.6537C98.9642 77.4861 98.3167 118.312 93.7846 121.553C89.2525 124.793 82.7781 129.977 87.3102 137.753C91.8423 145.53 97.0218 153.954 100.907 154.602C104.791 155.25 111.913 159.787 109.971 164.323C108.028 168.859 84.7204 160.435 84.7204 160.435C84.7204 160.435 69.1817 148.77 69.8292 130.625C70.4766 112.48 68.5343 59.9891 68.5343 59.9891Z" fill="#393737"/>
<path d="M91.1948 136.457L75.6562 165.619C75.6562 165.619 52.9956 188.948 65.9445 191.54C78.8935 194.132 86.0153 170.155 86.0153 170.155L102.849 146.178L91.1948 136.457Z" fill="#FFB8B8"/>
<path d="M54.1875 5.08677C53.4046 5.02871 52.6204 5.18095 51.916 5.52776C51.2791 5.99336 50.7541 6.5955 50.3795 7.2902C48.6526 9.89023 46.4015 12.1 43.7708 13.7777C41.8071 15.0279 39.3106 16.5867 39.6465 18.8917C39.8289 19.6645 40.1535 20.3966 40.6037 21.0504C42.4215 24.2605 43.1451 27.9759 42.6651 31.6343L48.0646 23.7789C48.9217 22.5319 50.4107 21.1243 51.7048 21.9074C52.1381 22.1696 52.4226 22.6399 52.8737 22.8699C53.9502 23.4189 55.0955 22.3694 56.0484 21.626C59.3343 19.0625 64.0072 19.7341 68.0962 20.5328C70.0266 20.9099 72.1469 21.4046 73.288 23.008C75.1844 25.6725 73.2042 29.5225 74.311 32.6007C74.6208 32.3836 74.8839 32.1064 75.0848 31.7857C75.2856 31.4649 75.42 31.107 75.4801 30.7333C77.0237 30.7811 78.9152 30.6292 79.5766 29.2323C79.7777 28.6848 79.8849 28.1073 79.8936 27.524C80.1364 25.1776 81.2823 23.0369 82.0415 20.8037C82.8006 18.5704 83.1307 15.9532 81.8496 13.9731C81.3809 13.3023 80.8153 12.7048 80.1712 12.2003C72.9009 6.08601 63.3422 5.0777 54.1875 5.08677Z" fill="#393737"/>
<path d="M91.1949 69.0616L97.2272 70.6642C97.2272 70.6642 111.266 106.648 108.028 131.273C104.791 155.898 102.849 150.714 102.849 150.714C102.849 150.714 97.6693 139.049 86.0153 141.642L91.1949 69.0616Z" fill="#393737"/>
<path d="M27.3474 351.431C25.7862 353.555 26.0992 356.59 24.7162 358.834C23.5174 360.779 21.2581 361.799 19.7586 363.523C19.2802 364.096 18.8536 364.71 18.4841 365.358C17.0931 367.69 15.9625 370.679 17.3324 373.024C18.4344 374.91 20.7508 375.647 22.8752 376.149C25.5604 376.784 28.3502 377.292 31.0663 376.807C33.7825 376.322 36.437 374.657 37.4054 372.071C37.5958 371.421 37.822 370.782 38.0832 370.157C39.5554 367.256 44.173 367.225 45.6797 364.341C46.7341 362.324 45.7648 359.885 44.796 357.825L41.8369 351.533C40.855 349.445 36.8742 350.645 34.7989 350.145C32.0923 349.492 29.2945 348.773 27.3474 351.431Z" fill="#393737"/>
<path d="M5.73218 149.418L32.9248 191.54C32.9248 191.54 49.7584 212.926 54.9379 203.205C60.1175 193.484 36.8095 177.284 36.8095 177.284L19.3285 144.882L5.73218 149.418Z" fill="#FFB8B8"/>
<path d="M19.3285 70.3577L14.149 69.0616C14.149 69.0616 3.78986 72.3018 1.20009 85.9105C-1.38968 99.5193 0.552643 153.954 3.78986 154.602C7.02708 155.25 19.7785 145.124 21.8196 147.271C23.8606 149.418 17.3862 138.401 19.3285 132.569C21.2708 126.737 19.3285 70.3577 19.3285 70.3577Z" fill="#393737"/>
<path d="M262.749 99.284H246.015V103.316H262.749V99.284Z" fill="#4D6DE3"/>
<path d="M320.697 99.284H314.81V103.316H320.697V99.284Z" fill="#4D6DE3"/>
<path d="M332.473 99.284H326.585V103.316H332.473V99.284Z" fill="#4D6DE3"/>
<path d="M308.612 99.284H268.636V103.316H308.612V99.284Z" fill="#4D6DE3"/>
<path d="M241.676 125.338H224.942V129.37H241.676V125.338Z" fill="#4D6DE3"/>
<path d="M299.625 125.338H293.737V129.37H299.625V125.338Z" fill="#4D6DE3"/>
<path d="M311.401 125.338H305.513V129.37H311.401V125.338Z" fill="#4D6DE3"/>
<path d="M287.54 125.338H247.564V129.37H287.54V125.338Z" fill="#4D6DE3"/>
<path d="M310.781 108.279H294.047V112.311H310.781V108.279Z" fill="#4D6DE3"/>
<path d="M333.403 108.279H316.669V112.311H333.403V108.279Z" fill="#4D6DE3"/>
<path d="M230.83 108.279H224.942V112.311H230.83V108.279Z" fill="#4D6DE3"/>
<path d="M242.606 108.279H236.718V112.311H242.606V108.279Z" fill="#4D6DE3"/>
<path d="M288.469 108.279H248.494V112.311H288.469V108.279Z" fill="#4D6DE3"/>
<path d="M276.074 116.964H259.34V120.996H276.074V116.964Z" fill="#4D6DE3"/>
<path d="M253.452 116.964H236.718V120.996H253.452V116.964Z" fill="#4D6DE3"/>
<path d="M230.83 116.964H224.942V120.996H230.83V116.964Z" fill="#4D6DE3"/>
<path d="M333.403 116.964H327.515V120.996H333.403V116.964Z" fill="#4D6DE3"/>
<path d="M321.627 116.964H281.652V120.996H321.627V116.964Z" fill="#4D6DE3"/>
</g>
<defs>
<clipPath id="clip0_19_676">
<rect width="400" height="377" fill="white"/>
</clipPath>
</defs>
</svg>
