<svg width="251" height="28" viewBox="0 0 251 28" fill="none" xmlns="http://www.w3.org/2000/svg">
<path d="M4.804 23.688H13.264V27H0.7V1.98H4.804V23.688ZM34.6601 7.164V27H30.5561V24.66C29.9081 25.476 29.0561 26.124 28.0001 26.604C26.9681 27.06 25.8641 27.288 24.6881 27.288C23.1281 27.288 21.7241 26.964 20.4761 26.316C19.2521 25.668 18.2801 24.708 17.5601 23.436C16.8641 22.164 16.5161 20.628 16.5161 18.828V7.164H20.5841V18.216C20.5841 19.992 21.0281 21.36 21.9161 22.32C22.8041 23.256 24.0161 23.724 25.5521 23.724C27.0881 23.724 28.3001 23.256 29.1881 22.32C30.1001 21.36 30.5561 19.992 30.5561 18.216V7.164H34.6601ZM38.707 16.992C38.707 15 39.115 13.236 39.931 11.7C40.771 10.164 41.899 8.976 43.315 8.136C44.755 7.272 46.339 6.84 48.067 6.84C49.627 6.84 50.983 7.152 52.135 7.776C53.311 8.376 54.247 9.132 54.943 10.044V7.164H59.083V27H54.943V24.048C54.247 24.984 53.299 25.764 52.099 26.388C50.899 27.012 49.531 27.324 47.995 27.324C46.291 27.324 44.731 26.892 43.315 26.028C41.899 25.14 40.771 23.916 39.931 22.356C39.115 20.772 38.707 18.984 38.707 16.992ZM54.943 17.064C54.943 15.696 54.655 14.508 54.079 13.5C53.527 12.492 52.795 11.724 51.883 11.196C50.971 10.668 49.987 10.404 48.931 10.404C47.875 10.404 46.891 10.668 45.979 11.196C45.067 11.7 44.323 12.456 43.747 13.464C43.195 14.448 42.919 15.624 42.919 16.992C42.919 18.36 43.195 19.56 43.747 20.592C44.323 21.624 45.067 22.416 45.979 22.968C46.915 23.496 47.899 23.76 48.931 23.76C49.987 23.76 50.971 23.496 51.883 22.968C52.795 22.44 53.527 21.672 54.079 20.664C54.655 19.632 54.943 18.432 54.943 17.064ZM74.4814 6.84C76.0414 6.84 77.4334 7.164 78.6574 7.812C79.9054 8.46 80.8774 9.42 81.5734 10.692C82.2694 11.964 82.6174 13.5 82.6174 15.3V27H78.5494V15.912C78.5494 14.136 78.1054 12.78 77.2174 11.844C76.3294 10.884 75.1174 10.404 73.5814 10.404C72.0454 10.404 70.8214 10.884 69.9094 11.844C69.0214 12.78 68.5774 14.136 68.5774 15.912V27H64.4734V7.164H68.5774V9.432C69.2494 8.616 70.1014 7.98 71.1334 7.524C72.1894 7.068 73.3054 6.84 74.4814 6.84ZM112.288 21.888H101.812L100.012 27H95.7279L104.692 1.944H109.444L118.408 27H114.088L112.288 21.888ZM111.136 18.54L107.068 6.912L102.964 18.54H111.136ZM132.313 6.84C133.873 6.84 135.265 7.164 136.489 7.812C137.737 8.46 138.709 9.42 139.405 10.692C140.101 11.964 140.449 13.5 140.449 15.3V27H136.381V15.912C136.381 14.136 135.937 12.78 135.049 11.844C134.161 10.884 132.949 10.404 131.413 10.404C129.877 10.404 128.653 10.884 127.741 11.844C126.853 12.78 126.409 14.136 126.409 15.912V27H122.305V7.164H126.409V9.432C127.081 8.616 127.933 7.98 128.965 7.524C130.021 7.068 131.137 6.84 132.313 6.84ZM144.316 16.992C144.316 15 144.724 13.236 145.54 11.7C146.38 10.164 147.508 8.976 148.924 8.136C150.364 7.272 151.96 6.84 153.712 6.84C155.008 6.84 156.28 7.128 157.528 7.704C158.8 8.256 159.808 9 160.552 9.936V0.36H164.692V27H160.552V24.012C159.88 24.972 158.944 25.764 157.744 26.388C156.568 27.012 155.212 27.324 153.676 27.324C151.948 27.324 150.364 26.892 148.924 26.028C147.508 25.14 146.38 23.916 145.54 22.356C144.724 20.772 144.316 18.984 144.316 16.992ZM160.552 17.064C160.552 15.696 160.264 14.508 159.688 13.5C159.136 12.492 158.404 11.724 157.492 11.196C156.58 10.668 155.596 10.404 154.54 10.404C153.484 10.404 152.5 10.668 151.588 11.196C150.676 11.7 149.932 12.456 149.356 13.464C148.804 14.448 148.528 15.624 148.528 16.992C148.528 18.36 148.804 19.56 149.356 20.592C149.932 21.624 150.676 22.416 151.588 22.968C152.524 23.496 153.508 23.76 154.54 23.76C155.596 23.76 156.58 23.496 157.492 22.968C158.404 22.44 159.136 21.672 159.688 20.664C160.264 19.632 160.552 18.432 160.552 17.064ZM174.187 10.044C174.787 9.036 175.579 8.256 176.563 7.704C177.571 7.128 178.759 6.84 180.127 6.84V11.088H179.083C177.475 11.088 176.251 11.496 175.411 12.312C174.595 13.128 174.187 14.544 174.187 16.56V27H170.083V7.164H174.187V10.044ZM182.531 16.992C182.531 15 182.939 13.236 183.755 11.7C184.595 10.164 185.723 8.976 187.139 8.136C188.579 7.272 190.163 6.84 191.891 6.84C193.451 6.84 194.807 7.152 195.959 7.776C197.135 8.376 198.071 9.132 198.767 10.044V7.164H202.907V27H198.767V24.048C198.071 24.984 197.123 25.764 195.923 26.388C194.723 27.012 193.355 27.324 191.819 27.324C190.115 27.324 188.555 26.892 187.139 26.028C185.723 25.14 184.595 23.916 183.755 22.356C182.939 20.772 182.531 18.984 182.531 16.992ZM198.767 17.064C198.767 15.696 198.479 14.508 197.903 13.5C197.351 12.492 196.619 11.724 195.707 11.196C194.795 10.668 193.811 10.404 192.755 10.404C191.699 10.404 190.715 10.668 189.803 11.196C188.891 11.7 188.147 12.456 187.571 13.464C187.019 14.448 186.743 15.624 186.743 16.992C186.743 18.36 187.019 19.56 187.571 20.592C188.147 21.624 188.891 22.416 189.803 22.968C190.739 23.496 191.723 23.76 192.755 23.76C193.811 23.76 194.795 23.496 195.707 22.968C196.619 22.44 197.351 21.672 197.903 20.664C198.479 19.632 198.767 18.432 198.767 17.064ZM206.93 16.992C206.93 15 207.338 13.236 208.154 11.7C208.994 10.164 210.122 8.976 211.538 8.136C212.978 7.272 214.574 6.84 216.326 6.84C217.622 6.84 218.894 7.128 220.142 7.704C221.414 8.256 222.422 9 223.166 9.936V0.36H227.306V27H223.166V24.012C222.494 24.972 221.558 25.764 220.358 26.388C219.182 27.012 217.826 27.324 216.29 27.324C214.562 27.324 212.978 26.892 211.538 26.028C210.122 25.14 208.994 23.916 208.154 22.356C207.338 20.772 206.93 18.984 206.93 16.992ZM223.166 17.064C223.166 15.696 222.878 14.508 222.302 13.5C221.75 12.492 221.018 11.724 220.106 11.196C219.194 10.668 218.21 10.404 217.154 10.404C216.098 10.404 215.114 10.668 214.202 11.196C213.29 11.7 212.546 12.456 211.97 13.464C211.418 14.448 211.142 15.624 211.142 16.992C211.142 18.36 211.418 19.56 211.97 20.592C212.546 21.624 213.29 22.416 214.202 22.968C215.138 23.496 216.122 23.76 217.154 23.76C218.21 23.76 219.194 23.496 220.106 22.968C221.018 22.44 221.75 21.672 222.302 20.664C222.878 19.632 223.166 18.432 223.166 17.064ZM250.876 16.596C250.876 17.34 250.828 18.012 250.732 18.612H235.576C235.696 20.196 236.284 21.468 237.34 22.428C238.396 23.388 239.692 23.868 241.228 23.868C243.436 23.868 244.996 22.944 245.908 21.096H250.336C249.736 22.92 248.644 24.42 247.06 25.596C245.5 26.748 243.556 27.324 241.228 27.324C239.332 27.324 237.628 26.904 236.116 26.064C234.628 25.2 233.452 24 232.588 22.464C231.748 20.904 231.328 19.104 231.328 17.064C231.328 15.024 231.736 13.236 232.552 11.7C233.392 10.14 234.556 8.94 236.044 8.1C237.556 7.26 239.284 6.84 241.228 6.84C243.1 6.84 244.768 7.248 246.232 8.064C247.696 8.88 248.836 10.032 249.652 11.52C250.468 12.984 250.876 14.676 250.876 16.596ZM246.592 15.3C246.568 13.788 246.028 12.576 244.972 11.664C243.916 10.752 242.608 10.296 241.048 10.296C239.632 10.296 238.42 10.752 237.412 11.664C236.404 12.552 235.804 13.764 235.612 15.3H246.592Z" fill="#F1FCFD"/>
</svg>
