<svg width="560" height="488" viewBox="0 0 560 488" fill="none" xmlns="http://www.w3.org/2000/svg">
<g clip-path="url(#clip0_238_2)">
<path d="M504.732 253.633C504.805 313.939 481.495 371.925 439.702 415.401C437.183 418.039 434.595 420.614 431.94 423.125C427.894 426.973 423.712 430.672 419.394 434.223C379.003 467.5 328.579 486.2 276.256 487.306C274.513 487.345 272.763 487.365 271.006 487.365C229.278 487.365 176.794 465.077 129.164 434.223C125.224 431.67 121.318 429.059 117.448 426.388C115.639 425.151 113.838 423.896 112.047 422.625C93.6768 409.653 76.24 395.408 59.865 379.995C49.1437 369.933 39.09 359.183 29.7677 347.812C-6.82923 302.67 -14.9012 261.994 37.274 253.633C43.4513 252.646 49.4466 251.591 55.26 250.468C63.6807 248.85 71.7395 247.102 79.4365 245.225C89.8044 242.705 99.5452 239.973 108.659 237.028C111.724 236.041 114.72 235.035 117.645 234.008C160.893 218.818 189.839 199.01 209.542 177.518C212.884 173.88 215.965 170.198 218.785 166.472C223.1 160.801 227.019 154.84 230.515 148.631C235.34 140.004 239.393 130.967 242.626 121.626L242.804 121.112C258.481 75.8909 253.711 33.9455 271.006 19.9066C344.937 -40.1103 436.979 45.3594 480.181 146.151C482.358 151.229 484.407 156.339 486.325 161.479C487.187 163.775 488.018 166.075 488.819 168.38C490.924 174.386 492.834 180.408 494.549 186.445C495.206 188.747 495.834 191.048 496.43 193.346C497.068 195.826 497.68 198.3 498.246 200.773C502.449 218.884 504.732 236.745 504.732 253.633Z" fill="#F2F2F2"/>
<path d="M276.257 487.306C274.513 487.345 272.763 487.365 271.007 487.365C229.279 487.365 176.794 465.077 129.165 434.223C125.224 431.67 121.319 429.059 117.448 426.388L120.843 405.731L223.608 392.087L275.184 431.525L276.257 487.306Z" fill="#2F2E41"/>
<path d="M281.203 118.448H266.559C266.105 118.448 265.67 118.629 265.35 118.949C265.029 119.27 264.849 119.705 264.849 120.159V134.809C264.849 135.033 264.893 135.255 264.979 135.462C265.065 135.669 265.192 135.858 265.35 136.016C265.509 136.174 265.698 136.299 265.905 136.385C266.113 136.47 266.335 136.514 266.559 136.513H281.203C281.656 136.513 282.09 136.334 282.41 136.015C282.731 135.695 282.912 135.262 282.914 134.809V120.159C282.912 119.705 282.732 119.271 282.411 118.951C282.091 118.63 281.656 118.449 281.203 118.448Z" fill="white"/>
<path d="M281.203 143.414H266.559C266.105 143.414 265.67 143.595 265.35 143.915C265.029 144.236 264.849 144.671 264.849 145.124V159.775C264.849 159.999 264.893 160.221 264.979 160.428C265.065 160.635 265.192 160.823 265.35 160.982C265.509 161.14 265.698 161.265 265.905 161.351C266.113 161.436 266.335 161.48 266.559 161.479H281.203C281.656 161.479 282.09 161.3 282.41 160.981C282.731 160.661 282.912 160.228 282.914 159.775V145.124C282.912 144.671 282.732 144.237 282.411 143.916C282.091 143.596 281.656 143.415 281.203 143.414Z" fill="#E6E6E6"/>
<path d="M281.203 168.38H266.559C266.105 168.38 265.67 168.56 265.35 168.881C265.029 169.202 264.849 169.637 264.849 170.09V184.734C264.848 184.959 264.892 185.182 264.978 185.39C265.064 185.597 265.19 185.786 265.349 185.945C265.507 186.104 265.696 186.23 265.904 186.316C266.112 186.401 266.334 186.445 266.559 186.445H281.203C281.657 186.445 282.092 186.264 282.412 185.944C282.733 185.623 282.913 185.188 282.914 184.734V170.09C282.912 169.637 282.732 169.203 282.411 168.882C282.091 168.562 281.656 168.381 281.203 168.38Z" fill="#E6E6E6"/>
<path d="M282.887 194.754C282.814 194.36 282.606 194.004 282.299 193.747C281.991 193.49 281.604 193.348 281.203 193.346H266.559C266.105 193.346 265.67 193.526 265.35 193.847C265.029 194.168 264.849 194.603 264.849 195.056V209.7C264.848 209.925 264.892 210.148 264.978 210.355C265.064 210.563 265.19 210.752 265.349 210.911C265.507 211.07 265.696 211.196 265.904 211.282C266.112 211.367 266.334 211.411 266.559 211.411H281.203C281.657 211.411 282.092 211.23 282.412 210.91C282.733 210.589 282.913 210.154 282.914 209.7V195.056C282.915 194.955 282.906 194.853 282.887 194.754Z" fill="#E6E6E6"/>
<path d="M281.867 218.443C281.657 218.356 281.431 218.312 281.203 218.312H266.559C266.334 218.311 266.112 218.355 265.904 218.441C265.696 218.527 265.507 218.653 265.349 218.812C265.19 218.971 265.064 219.159 264.978 219.367C264.892 219.575 264.848 219.798 264.849 220.022V234.666C264.848 234.891 264.891 235.114 264.977 235.322C265.062 235.53 265.188 235.719 265.347 235.878C265.506 236.037 265.695 236.163 265.903 236.249C266.111 236.334 266.334 236.378 266.559 236.377H281.203C281.657 236.377 282.092 236.196 282.412 235.876C282.733 235.555 282.913 235.12 282.914 234.666V220.022C282.913 219.686 282.813 219.357 282.627 219.076C282.441 218.795 282.177 218.575 281.867 218.443Z" fill="#E6E6E6"/>
<path d="M311.965 118.448H297.321C296.867 118.448 296.432 118.629 296.112 118.949C295.791 119.27 295.611 119.705 295.61 120.159V134.809C295.611 135.033 295.655 135.255 295.741 135.462C295.827 135.669 295.953 135.858 296.112 136.016C296.271 136.174 296.46 136.299 296.667 136.385C296.874 136.47 297.096 136.514 297.321 136.513H311.965C312.417 136.513 312.851 136.334 313.172 136.015C313.493 135.695 313.674 135.262 313.675 134.809V120.159C313.674 119.705 313.493 119.271 313.173 118.951C312.852 118.63 312.418 118.449 311.965 118.448Z" fill="#E6E6E6"/>
<path d="M311.965 143.414H297.321C296.867 143.414 296.432 143.595 296.111 143.915C295.791 144.236 295.611 144.671 295.61 145.124V159.775C295.611 159.999 295.655 160.221 295.741 160.428C295.827 160.635 295.953 160.823 296.112 160.982C296.271 161.14 296.46 161.265 296.667 161.351C296.874 161.436 297.096 161.48 297.321 161.479H311.965C312.417 161.479 312.852 161.3 313.172 160.981C313.493 160.661 313.674 160.228 313.675 159.775V145.124C313.674 144.671 313.493 144.237 313.173 143.916C312.852 143.596 312.418 143.415 311.965 143.414Z" fill="#D7263D"/>
<path d="M311.965 168.38H297.321C296.867 168.38 296.432 168.56 296.112 168.881C295.791 169.202 295.611 169.637 295.61 170.09V184.734C295.61 184.959 295.654 185.182 295.74 185.39C295.825 185.597 295.951 185.786 296.11 185.945C296.269 186.104 296.458 186.23 296.666 186.316C296.873 186.401 297.096 186.445 297.321 186.445H311.965C312.418 186.445 312.853 186.264 313.174 185.944C313.495 185.623 313.675 185.188 313.675 184.734V170.09C313.674 169.637 313.493 169.203 313.173 168.882C312.852 168.562 312.418 168.381 311.965 168.38Z" fill="#D7263D"/>
<path d="M311.965 193.346H297.321C296.962 193.346 296.613 193.459 296.322 193.67C296.032 193.88 295.815 194.176 295.702 194.517C295.642 194.69 295.61 194.873 295.61 195.056V209.7C295.61 209.925 295.654 210.148 295.74 210.355C295.825 210.563 295.951 210.752 296.11 210.911C296.269 211.07 296.458 211.196 296.666 211.282C296.873 211.367 297.096 211.411 297.321 211.411H311.965C312.418 211.411 312.853 211.23 313.174 210.91C313.495 210.589 313.675 210.154 313.675 209.7V195.056C313.674 194.603 313.493 194.169 313.173 193.848C312.852 193.528 312.418 193.347 311.965 193.346Z" fill="#D7263D"/>
<path d="M311.965 218.312H297.321C297.096 218.311 296.873 218.355 296.666 218.441C296.458 218.527 296.269 218.653 296.11 218.812C295.951 218.971 295.825 219.159 295.74 219.367C295.654 219.575 295.61 219.798 295.61 220.022V234.666C295.61 234.891 295.654 235.114 295.74 235.321C295.825 235.529 295.951 235.718 296.11 235.877C296.269 236.036 296.458 236.162 296.666 236.248C296.873 236.333 297.096 236.377 297.321 236.377H311.965C312.418 236.377 312.853 236.196 313.174 235.876C313.495 235.555 313.675 235.12 313.675 234.666V220.022C313.675 219.569 313.495 219.134 313.174 218.813C312.853 218.492 312.418 218.312 311.965 218.312Z" fill="#E6E6E6"/>
<path d="M342.726 118.448H328.082C327.629 118.448 327.194 118.629 326.873 118.949C326.553 119.27 326.372 119.705 326.372 120.159V134.809C326.372 135.033 326.417 135.255 326.503 135.462C326.589 135.669 326.715 135.858 326.874 136.016C327.033 136.174 327.221 136.299 327.429 136.385C327.636 136.47 327.858 136.514 328.082 136.513H342.726C343.179 136.513 343.613 136.334 343.934 136.015C344.254 135.695 344.435 135.262 344.437 134.809V120.159C344.436 119.705 344.255 119.271 343.934 118.951C343.614 118.63 343.18 118.449 342.726 118.448Z" fill="#D7263D"/>
<path d="M342.726 143.414H328.082C327.629 143.414 327.194 143.595 326.873 143.915C326.553 144.236 326.372 144.671 326.372 145.124V159.775C326.372 159.999 326.417 160.221 326.503 160.428C326.589 160.635 326.715 160.823 326.874 160.982C327.033 161.14 327.221 161.265 327.429 161.351C327.636 161.436 327.858 161.48 328.082 161.479H342.726C343.179 161.479 343.613 161.3 343.934 160.981C344.254 160.661 344.435 160.228 344.437 159.775V145.124C344.436 144.671 344.255 144.237 343.935 143.916C343.614 143.596 343.18 143.415 342.726 143.414Z" fill="#D7263D"/>
<path d="M342.726 168.38H328.082C327.629 168.38 327.194 168.56 326.873 168.881C326.553 169.202 326.372 169.637 326.372 170.09V184.734C326.372 184.959 326.416 185.182 326.501 185.39C326.587 185.597 326.713 185.786 326.872 185.945C327.031 186.104 327.22 186.23 327.427 186.316C327.635 186.401 327.858 186.445 328.082 186.445H342.726C343.18 186.445 343.615 186.264 343.936 185.944C344.256 185.623 344.437 185.188 344.437 184.734V170.09C344.436 169.637 344.255 169.203 343.935 168.882C343.614 168.562 343.18 168.381 342.726 168.38Z" fill="#E6E6E6"/>
<path d="M342.726 193.346H328.082C327.629 193.346 327.194 193.526 326.873 193.847C326.553 194.168 326.372 194.603 326.372 195.056V209.7C326.372 209.925 326.416 210.148 326.501 210.355C326.587 210.563 326.713 210.752 326.872 210.911C327.031 211.07 327.22 211.196 327.427 211.282C327.635 211.367 327.858 211.411 328.082 211.411H342.726C343.18 211.411 343.615 211.23 343.936 210.91C344.256 210.589 344.437 210.154 344.437 209.7V195.056C344.436 194.603 344.255 194.169 343.935 193.848C343.614 193.528 343.18 193.347 342.726 193.346Z" fill="#D7263D"/>
<path d="M342.726 218.312H328.082C327.858 218.311 327.635 218.355 327.427 218.441C327.22 218.527 327.031 218.653 326.872 218.812C326.713 218.971 326.587 219.159 326.501 219.367C326.416 219.575 326.372 219.798 326.372 220.022V234.666C326.372 234.891 326.416 235.114 326.501 235.321C326.587 235.529 326.713 235.718 326.872 235.877C327.031 236.036 327.22 236.162 327.427 236.248C327.635 236.333 327.858 236.377 328.082 236.377H342.726C343.18 236.377 343.615 236.196 343.936 235.876C344.256 235.555 344.437 235.12 344.437 234.666V220.022C344.437 219.569 344.256 219.134 343.936 218.813C343.615 218.492 343.18 218.312 342.726 218.312Z" fill="#D7263D"/>
<path d="M373.488 118.448H358.844C358.391 118.448 357.956 118.629 357.635 118.949C357.314 119.27 357.134 119.705 357.134 120.159V134.809C357.134 135.033 357.178 135.255 357.265 135.462C357.351 135.669 357.477 135.858 357.636 136.016C357.795 136.174 357.983 136.299 358.19 136.385C358.398 136.47 358.62 136.514 358.844 136.513H373.488C373.941 136.513 374.375 136.334 374.696 136.015C375.016 135.695 375.197 135.262 375.199 134.809V120.159C375.197 119.705 375.017 119.271 374.696 118.951C374.376 118.63 373.941 118.449 373.488 118.448Z" fill="#D7263D"/>
<path d="M373.488 143.414H358.844C358.391 143.414 357.956 143.595 357.635 143.915C357.314 144.236 357.134 144.671 357.134 145.124V159.775C357.134 159.999 357.178 160.221 357.265 160.428C357.351 160.635 357.477 160.823 357.636 160.982C357.795 161.14 357.983 161.265 358.19 161.351C358.398 161.436 358.62 161.48 358.844 161.479H373.488C373.941 161.479 374.375 161.3 374.696 160.981C375.016 160.661 375.197 160.228 375.199 159.775V145.124C375.197 144.671 375.017 144.237 374.696 143.916C374.376 143.596 373.942 143.415 373.488 143.414Z" fill="white"/>
<path d="M373.488 168.38H358.844C358.391 168.38 357.956 168.56 357.635 168.881C357.314 169.202 357.134 169.637 357.134 170.09V184.734C357.133 184.959 357.177 185.182 357.263 185.39C357.349 185.597 357.475 185.786 357.634 185.945C357.793 186.104 357.981 186.23 358.189 186.316C358.397 186.401 358.619 186.445 358.844 186.445H373.488C373.942 186.445 374.377 186.264 374.698 185.944C375.018 185.623 375.199 185.188 375.199 184.734V170.09C375.197 169.637 375.017 169.203 374.696 168.882C374.376 168.562 373.942 168.381 373.488 168.38Z" fill="white"/>
<path d="M373.488 193.346H358.844C358.391 193.346 357.956 193.526 357.635 193.847C357.314 194.168 357.134 194.603 357.134 195.056V209.7C357.133 209.925 357.177 210.148 357.263 210.355C357.349 210.563 357.475 210.752 357.634 210.911C357.793 211.07 357.981 211.196 358.189 211.282C358.397 211.367 358.619 211.411 358.844 211.411H373.488C373.942 211.411 374.377 211.23 374.698 210.91C375.018 210.589 375.199 210.154 375.199 209.7V195.056C375.197 194.603 375.017 194.169 374.696 193.848C374.376 193.528 373.942 193.347 373.488 193.346Z" fill="#E6E6E6"/>
<path d="M373.488 218.312H358.844C358.619 218.311 358.397 218.355 358.189 218.441C357.981 218.527 357.793 218.653 357.634 218.812C357.475 218.971 357.349 219.159 357.263 219.367C357.177 219.575 357.133 219.798 357.134 220.022V234.666C357.133 234.891 357.177 235.114 357.263 235.321C357.349 235.529 357.475 235.718 357.634 235.877C357.793 236.036 357.981 236.162 358.189 236.248C358.397 236.333 358.619 236.377 358.844 236.377H373.488C373.942 236.377 374.377 236.196 374.698 235.876C375.018 235.555 375.199 235.12 375.199 234.666V220.022C375.199 219.569 375.018 219.134 374.698 218.813C374.377 218.492 373.942 218.312 373.488 218.312Z" fill="#D7263D"/>
<path d="M404.25 118.448H389.599C389.146 118.45 388.713 118.631 388.394 118.951C388.074 119.272 387.895 119.706 387.895 120.159V134.809C387.895 135.261 388.075 135.694 388.394 136.014C388.714 136.333 389.147 136.513 389.599 136.513H404.25C404.702 136.513 405.136 136.334 405.457 136.015C405.778 135.695 405.958 135.262 405.96 134.809V120.159C405.959 119.705 405.778 119.271 405.458 118.951C405.137 118.63 404.703 118.449 404.25 118.448Z" fill="white"/>
<path d="M404.25 143.414H389.599C389.146 143.416 388.713 143.597 388.393 143.917C388.074 144.238 387.895 144.672 387.895 145.124V159.775C387.895 160.227 388.075 160.66 388.394 160.98C388.714 161.299 389.147 161.479 389.599 161.479H404.25C404.702 161.479 405.136 161.3 405.457 160.981C405.778 160.661 405.958 160.228 405.96 159.775V145.124C405.959 144.671 405.778 144.237 405.458 143.916C405.137 143.596 404.703 143.415 404.25 143.414Z" fill="white"/>
<path d="M404.25 168.38H389.599C389.146 168.382 388.713 168.562 388.394 168.883C388.074 169.204 387.895 169.638 387.895 170.09V184.734C387.894 184.959 387.938 185.181 388.023 185.388C388.109 185.596 388.234 185.784 388.392 185.943C388.551 186.102 388.739 186.228 388.946 186.314C389.153 186.4 389.375 186.445 389.599 186.445H404.25C404.703 186.445 405.138 186.264 405.459 185.944C405.78 185.623 405.96 185.188 405.96 184.734V170.09C405.959 169.637 405.778 169.203 405.458 168.882C405.137 168.562 404.703 168.381 404.25 168.38Z" fill="white"/>
<path d="M404.25 193.346H389.599C389.146 193.347 388.713 193.528 388.394 193.849C388.074 194.17 387.895 194.604 387.895 195.056V209.7C387.894 209.925 387.938 210.147 388.023 210.354C388.109 210.562 388.234 210.75 388.392 210.909C388.551 211.068 388.739 211.194 388.946 211.28C389.153 211.366 389.375 211.411 389.599 211.411H404.25C404.703 211.411 405.138 211.23 405.459 210.91C405.78 210.589 405.96 210.154 405.96 209.7V195.056C405.959 194.603 405.778 194.169 405.458 193.848C405.137 193.528 404.703 193.347 404.25 193.346Z" fill="#D7263D"/>
<path d="M404.25 218.312H389.599C389.375 218.312 389.153 218.357 388.946 218.443C388.739 218.529 388.551 218.655 388.392 218.814C388.234 218.973 388.109 219.161 388.023 219.368C387.938 219.576 387.894 219.798 387.895 220.022V234.666C387.894 234.891 387.938 235.113 388.023 235.32C388.109 235.528 388.234 235.716 388.392 235.875C388.551 236.034 388.739 236.16 388.946 236.246C389.153 236.332 389.375 236.377 389.599 236.377H404.25C404.703 236.377 405.138 236.196 405.459 235.876C405.78 235.555 405.96 235.12 405.96 234.666V220.022C405.96 219.569 405.78 219.134 405.459 218.813C405.138 218.492 404.703 218.312 404.25 218.312Z" fill="#E6E6E6"/>
<path d="M435.012 118.448H420.361C419.909 118.45 419.475 118.631 419.156 118.951C418.836 119.272 418.657 119.706 418.657 120.159V134.809C418.657 135.261 418.837 135.694 419.156 136.014C419.476 136.333 419.909 136.513 420.361 136.513H435.012C435.464 136.513 435.898 136.334 436.219 136.015C436.54 135.695 436.721 135.262 436.722 134.809V120.159C436.721 119.705 436.54 119.271 436.22 118.951C435.899 118.63 435.465 118.449 435.012 118.448Z" fill="white"/>
<path d="M435.012 143.414H420.361C419.909 143.416 419.475 143.597 419.156 143.917C418.836 144.238 418.657 144.672 418.657 145.124V159.775C418.657 160.227 418.837 160.66 419.156 160.98C419.476 161.299 419.909 161.479 420.361 161.479H435.012C435.464 161.479 435.898 161.3 436.219 160.981C436.54 160.661 436.721 160.228 436.722 159.775V145.124C436.721 144.671 436.54 144.237 436.22 143.916C435.899 143.596 435.465 143.415 435.012 143.414Z" fill="white"/>
<path d="M435.012 168.38H420.361C419.909 168.382 419.475 168.562 419.156 168.883C418.836 169.204 418.657 169.638 418.657 170.09V184.734C418.657 184.959 418.7 185.181 418.786 185.388C418.871 185.596 418.996 185.784 419.154 185.943C419.313 186.102 419.501 186.228 419.708 186.314C419.915 186.4 420.137 186.445 420.361 186.445H435.012C435.465 186.445 435.9 186.264 436.221 185.944C436.542 185.623 436.722 185.188 436.722 184.734V170.09C436.721 169.637 436.54 169.203 436.22 168.882C435.899 168.562 435.465 168.381 435.012 168.38Z" fill="#D7263D"/>
<path d="M435.012 193.346H420.361C419.909 193.347 419.475 193.528 419.156 193.849C418.836 194.17 418.657 194.604 418.657 195.056V209.7C418.657 209.925 418.7 210.147 418.786 210.354C418.871 210.562 418.996 210.75 419.154 210.909C419.313 211.068 419.501 211.194 419.708 211.28C419.915 211.366 420.137 211.411 420.361 211.411H435.012C435.465 211.411 435.9 211.23 436.221 210.91C436.542 210.589 436.722 210.154 436.722 209.7V195.056C436.721 194.603 436.54 194.169 436.22 193.848C435.899 193.528 435.465 193.347 435.012 193.346Z" fill="#E6E6E6"/>
<path d="M435.012 218.312H420.361C420.137 218.312 419.915 218.357 419.708 218.443C419.501 218.529 419.313 218.655 419.154 218.814C418.996 218.973 418.871 219.161 418.786 219.368C418.7 219.576 418.657 219.798 418.657 220.022V234.666C418.657 234.891 418.7 235.113 418.786 235.32C418.871 235.528 418.996 235.716 419.154 235.875C419.313 236.034 419.501 236.16 419.708 236.246C419.915 236.332 420.137 236.377 420.361 236.377H435.012C435.465 236.377 435.9 236.196 436.221 235.876C436.542 235.555 436.722 235.12 436.722 234.666V220.022C436.722 219.569 436.542 219.134 436.221 218.813C435.9 218.492 435.465 218.312 435.012 218.312Z" fill="white"/>
<path d="M465.773 118.448H451.123C450.67 118.45 450.237 118.631 449.917 118.951C449.598 119.272 449.419 119.706 449.419 120.159V134.809C449.419 135.261 449.599 135.694 449.918 136.014C450.238 136.333 450.671 136.513 451.123 136.513H465.773C466.226 136.513 466.66 136.334 466.981 136.015C467.301 135.695 467.482 135.262 467.484 134.809V120.159C467.483 119.705 467.302 119.271 466.981 118.951C466.661 118.63 466.227 118.449 465.773 118.448Z" fill="#D7263D"/>
<path d="M465.773 143.414H451.123C450.67 143.416 450.237 143.597 449.917 143.917C449.598 144.238 449.419 144.672 449.419 145.124V159.775C449.419 160.227 449.599 160.66 449.918 160.98C450.238 161.299 450.671 161.479 451.123 161.479H465.773C466.226 161.479 466.66 161.3 466.981 160.981C467.301 160.661 467.482 160.228 467.484 159.775V145.124C467.483 144.671 467.302 144.237 466.981 143.916C466.661 143.596 466.227 143.415 465.773 143.414Z" fill="#D7263D"/>
<path d="M465.773 168.38H451.123C450.67 168.382 450.237 168.562 449.917 168.883C449.598 169.204 449.419 169.638 449.419 170.09V184.734C449.418 184.959 449.462 185.181 449.547 185.388C449.633 185.596 449.758 185.784 449.916 185.943C450.074 186.102 450.263 186.228 450.47 186.314C450.677 186.4 450.899 186.445 451.123 186.445H465.773C466.227 186.445 466.662 186.264 466.983 185.944C467.303 185.623 467.484 185.188 467.484 184.734V170.09C467.483 169.637 467.302 169.203 466.981 168.882C466.661 168.562 466.227 168.381 465.773 168.38Z" fill="#E6E6E6"/>
<path d="M465.773 193.346H451.123C450.67 193.347 450.237 193.528 449.917 193.849C449.598 194.17 449.419 194.604 449.419 195.056V209.7C449.418 209.925 449.462 210.147 449.547 210.354C449.633 210.562 449.758 210.75 449.916 210.909C450.074 211.068 450.263 211.194 450.47 211.28C450.677 211.366 450.899 211.411 451.123 211.411H465.773C466.227 211.411 466.662 211.23 466.983 210.91C467.303 210.589 467.484 210.154 467.484 209.7V195.056C467.483 194.603 467.302 194.169 466.981 193.848C466.661 193.528 466.227 193.347 465.773 193.346Z" fill="white"/>
<path d="M465.773 218.312H451.123C450.899 218.312 450.677 218.357 450.47 218.443C450.263 218.529 450.074 218.655 449.916 218.814C449.758 218.973 449.633 219.161 449.547 219.368C449.462 219.576 449.418 219.798 449.419 220.022V234.666C449.418 234.891 449.462 235.113 449.547 235.32C449.633 235.528 449.758 235.716 449.916 235.875C450.074 236.034 450.263 236.16 450.47 236.246C450.677 236.332 450.899 236.377 451.123 236.377H465.773C466.227 236.377 466.662 236.196 466.983 235.876C467.303 235.555 467.484 235.12 467.484 234.666V220.022C467.484 219.569 467.303 219.134 466.983 218.813C466.662 218.492 466.227 218.312 465.773 218.312Z" fill="#D7263D"/>
<path d="M496.535 118.448H481.885C481.432 118.45 480.999 118.631 480.679 118.951C480.36 119.272 480.181 119.706 480.181 120.159V134.809C480.181 135.261 480.36 135.694 480.68 136.014C480.999 136.333 481.433 136.513 481.885 136.513H496.535C496.988 136.513 497.422 136.334 497.743 136.015C498.063 135.695 498.244 135.262 498.246 134.809V120.159C498.244 119.705 498.064 119.271 497.743 118.951C497.423 118.63 496.988 118.449 496.535 118.448Z" fill="#D7263D"/>
<path d="M496.535 143.414H481.885C481.432 143.416 480.999 143.597 480.679 143.917C480.36 144.238 480.18 144.672 480.181 145.124V159.775C480.181 160.227 480.36 160.66 480.68 160.98C480.999 161.299 481.433 161.479 481.885 161.479H496.535C496.988 161.479 497.422 161.3 497.743 160.981C498.063 160.661 498.244 160.228 498.246 159.775V145.124C498.244 144.671 498.064 144.237 497.743 143.916C497.423 143.596 496.988 143.415 496.535 143.414Z" fill="#D7263D"/>
<path d="M496.535 168.38H481.885C481.432 168.382 480.999 168.562 480.679 168.883C480.36 169.204 480.181 169.638 480.181 170.09V184.734C480.18 184.959 480.224 185.181 480.309 185.388C480.394 185.596 480.52 185.784 480.678 185.943C480.836 186.102 481.024 186.228 481.231 186.314C481.438 186.4 481.66 186.445 481.885 186.445H496.535C496.989 186.445 497.424 186.264 497.744 185.944C498.065 185.623 498.245 185.188 498.246 184.734V170.09C498.244 169.637 498.064 169.203 497.743 168.882C497.423 168.562 496.988 168.381 496.535 168.38Z" fill="#E6E6E6"/>
<path d="M496.535 193.346H481.885C481.432 193.347 480.999 193.528 480.679 193.849C480.36 194.17 480.181 194.604 480.181 195.056V209.7C480.18 209.925 480.224 210.147 480.309 210.354C480.394 210.562 480.52 210.75 480.678 210.909C480.836 211.068 481.024 211.194 481.231 211.28C481.438 211.366 481.66 211.411 481.885 211.411H496.535C496.989 211.411 497.424 211.23 497.744 210.91C498.065 210.589 498.245 210.154 498.246 209.7V195.056C498.244 194.603 498.064 194.169 497.743 193.848C497.423 193.528 496.988 193.347 496.535 193.346Z" fill="#D7263D"/>
<path d="M496.535 218.312H481.885C481.66 218.312 481.438 218.357 481.231 218.443C481.024 218.529 480.836 218.655 480.678 218.814C480.52 218.973 480.394 219.161 480.309 219.368C480.224 219.576 480.18 219.798 480.181 220.022V234.666C480.18 234.891 480.224 235.113 480.309 235.32C480.394 235.528 480.52 235.716 480.678 235.875C480.836 236.034 481.024 236.16 481.231 236.246C481.438 236.332 481.66 236.377 481.885 236.377H496.535C496.989 236.377 497.424 236.196 497.744 235.876C498.065 235.555 498.245 235.12 498.246 234.666V220.022C498.245 219.569 498.065 219.134 497.744 218.813C497.424 218.492 496.989 218.312 496.535 218.312Z" fill="#D7263D"/>
<path d="M527.297 118.448H512.646C512.194 118.45 511.76 118.631 511.441 118.951C511.121 119.272 510.942 119.706 510.942 120.159V134.809C510.942 135.261 511.122 135.694 511.442 136.014C511.761 136.333 512.194 136.513 512.646 136.513H527.297C527.749 136.513 528.184 136.334 528.504 136.015C528.825 135.695 529.006 135.262 529.007 134.809V120.159C529.006 119.705 528.825 119.271 528.505 118.951C528.184 118.63 527.75 118.449 527.297 118.448Z" fill="#E6E6E6"/>
<path d="M527.297 143.414H512.646C512.194 143.416 511.76 143.597 511.441 143.917C511.121 144.238 510.942 144.672 510.942 145.124V159.775C510.942 160.227 511.122 160.66 511.442 160.98C511.761 161.299 512.194 161.479 512.646 161.479H527.297C527.749 161.479 528.184 161.3 528.504 160.981C528.825 160.661 529.006 160.228 529.007 159.775V145.124C529.006 144.671 528.825 144.237 528.505 143.916C528.184 143.596 527.75 143.415 527.297 143.414Z" fill="#D7263D"/>
<path d="M527.297 168.38H512.646C512.194 168.382 511.76 168.562 511.441 168.883C511.121 169.204 510.942 169.638 510.942 170.09V184.734C510.942 184.959 510.985 185.181 511.071 185.388C511.156 185.596 511.281 185.784 511.44 185.943C511.598 186.102 511.786 186.228 511.993 186.314C512.2 186.4 512.422 186.445 512.646 186.445H527.297C527.75 186.445 528.185 186.264 528.506 185.944C528.827 185.623 529.007 185.188 529.007 184.734V170.09C529.006 169.637 528.825 169.203 528.505 168.882C528.184 168.562 527.75 168.381 527.297 168.38Z" fill="#D7263D"/>
<path d="M527.297 193.346H512.646C512.194 193.347 511.76 193.528 511.441 193.849C511.121 194.17 510.942 194.604 510.942 195.056V209.7C510.942 209.925 510.985 210.147 511.071 210.354C511.156 210.562 511.281 210.75 511.44 210.909C511.598 211.068 511.786 211.194 511.993 211.28C512.2 211.366 512.422 211.411 512.646 211.411H527.297C527.75 211.411 528.185 211.23 528.506 210.91C528.827 210.589 529.007 210.154 529.007 209.7V195.056C529.006 194.603 528.825 194.169 528.505 193.848C528.184 193.528 527.75 193.347 527.297 193.346Z" fill="#D7263D"/>
<path d="M527.297 218.312H512.646C512.422 218.312 512.2 218.357 511.993 218.443C511.786 218.529 511.598 218.655 511.44 218.814C511.281 218.973 511.156 219.161 511.071 219.368C510.985 219.576 510.942 219.798 510.942 220.022V234.666C510.942 234.891 510.985 235.113 511.071 235.32C511.156 235.528 511.281 235.716 511.44 235.875C511.598 236.034 511.786 236.16 511.993 236.246C512.2 236.332 512.422 236.377 512.646 236.377H527.297C527.75 236.377 528.185 236.196 528.506 235.876C528.827 235.555 529.007 235.12 529.007 234.666V220.022C529.007 219.569 528.827 219.134 528.506 218.813C528.185 218.492 527.75 218.312 527.297 218.312Z" fill="#E6E6E6"/>
<path d="M558.059 118.448H543.408C542.955 118.45 542.522 118.631 542.203 118.951C541.883 119.272 541.704 119.706 541.704 120.159V134.809C541.704 135.261 541.884 135.694 542.203 136.014C542.523 136.333 542.956 136.513 543.408 136.513H558.059C558.511 136.513 558.945 136.334 559.266 136.015C559.587 135.695 559.768 135.262 559.769 134.809V120.159C559.768 119.705 559.587 119.271 559.267 118.951C558.946 118.63 558.512 118.449 558.059 118.448Z" fill="#E6E6E6"/>
<path d="M558.059 143.414H543.408C542.955 143.416 542.522 143.597 542.203 143.917C541.883 144.238 541.704 144.672 541.704 145.124V159.775C541.704 160.227 541.884 160.66 542.203 160.98C542.523 161.299 542.956 161.479 543.408 161.479H558.059C558.511 161.479 558.945 161.3 559.266 160.981C559.587 160.661 559.768 160.228 559.769 159.775V145.124C559.768 144.671 559.587 144.237 559.267 143.916C558.946 143.596 558.512 143.415 558.059 143.414Z" fill="#E6E6E6"/>
<path d="M558.059 168.38H543.408C542.955 168.382 542.522 168.562 542.203 168.883C541.883 169.204 541.704 169.638 541.704 170.09V184.734C541.703 184.959 541.747 185.181 541.832 185.388C541.918 185.596 542.043 185.784 542.201 185.943C542.36 186.102 542.548 186.228 542.755 186.314C542.962 186.4 543.184 186.445 543.408 186.445H558.059C558.512 186.445 558.947 186.264 559.268 185.944C559.589 185.623 559.769 185.188 559.769 184.734V170.09C559.768 169.637 559.587 169.203 559.267 168.882C558.946 168.562 558.512 168.381 558.059 168.38Z" fill="#D7263D"/>
<path d="M558.059 193.346H543.408C542.955 193.347 542.522 193.528 542.203 193.849C541.883 194.17 541.704 194.604 541.704 195.056V209.7C541.703 209.925 541.747 210.147 541.832 210.354C541.918 210.562 542.043 210.75 542.201 210.909C542.36 211.068 542.548 211.194 542.755 211.28C542.962 211.366 543.184 211.411 543.408 211.411H558.059C558.512 211.411 558.947 211.23 559.268 210.91C559.589 210.589 559.769 210.154 559.769 209.7V195.056C559.768 194.603 559.587 194.169 559.267 193.848C558.946 193.528 558.512 193.347 558.059 193.346Z" fill="#E6E6E6"/>
<path d="M558.059 218.312H543.408C543.184 218.312 542.962 218.357 542.755 218.443C542.548 218.529 542.36 218.655 542.201 218.814C542.043 218.973 541.918 219.161 541.832 219.368C541.747 219.576 541.703 219.798 541.704 220.022V234.666C541.703 234.891 541.747 235.113 541.832 235.32C541.918 235.528 542.043 235.716 542.201 235.875C542.36 236.034 542.548 236.16 542.755 236.246C542.962 236.332 543.184 236.377 543.408 236.377H558.059C558.512 236.377 558.947 236.196 559.268 235.876C559.589 235.555 559.769 235.12 559.769 234.666V220.022C559.769 219.569 559.589 219.134 559.268 218.813C558.947 218.492 558.512 218.312 558.059 218.312Z" fill="#E6E6E6"/>
<path d="M221.336 434.224H220.928L221.276 434.178L221.336 434.224Z" fill="#2F2E41"/>
<path d="M186.285 161.213C211.108 161.213 231.231 141.089 231.231 116.266C231.231 91.4429 211.108 71.3196 186.285 71.3196C161.462 71.3196 141.338 91.4429 141.338 116.266C141.338 141.089 161.462 161.213 186.285 161.213Z" fill="#FFB6B6"/>
<path d="M225.645 83.3121C225.645 83.3121 237.401 60.8389 211.538 58.7958C211.538 58.7958 189.49 38.7953 167.016 55.1394C167.016 55.1394 154.758 55.1394 148.055 69.0109C148.055 69.0109 138.414 65.3545 136.296 75.14C136.296 75.14 129.241 95.5703 136.296 113.957C143.35 132.345 145.693 134.388 145.693 134.388C145.693 134.388 134.101 95.8379 162.318 93.7948C190.534 91.7518 222.109 74.1185 224.46 96.5917C226.812 119.065 230.35 124.602 230.35 124.602C230.35 124.602 252.684 92.5058 225.645 83.3121Z" fill="#242833"/>
<path d="M302.551 227.035L302.406 227.798L300.781 236.377L289.551 295.716L288.887 299.209L287.492 306.597L285.585 316.676L281.354 339.01L280.144 345.411L279.69 347.812L279.532 348.654L278.276 355.279L277.894 357.279L274.828 379.995L272.151 399.79L281.111 408.75L275.769 414.092L272.263 434.177L272.269 434.223H129.164C123.375 430.473 117.669 426.607 112.047 422.625L113.224 413.809C113.224 413.809 117.277 398.067 115.573 396.185C113.875 394.304 110.152 390.942 110.152 390.942L114.843 379.995L115.494 378.475L114.402 355.825L114.375 355.279L114.014 347.812L113.968 346.852L113.895 345.411L112.507 316.676L112.481 316.202L112.06 307.492L111.665 299.209L111.494 295.716L109.803 260.764L108.659 237.028L107.659 216.365L111.678 215.003L154.67 200.392L172.478 177.241L209.542 177.518L227.686 177.656L257.961 205.733L264.849 209.023L264.901 209.049L269.842 211.411L282.368 217.391L295.61 223.719L302.406 226.963L302.551 227.035Z" fill="#CACACA"/>
<path d="M177.268 366.793C174.552 367.845 171.638 368.289 168.732 368.093C165.826 367.897 162.998 367.067 160.447 365.66C157.897 364.253 155.686 362.304 153.97 359.95C152.254 357.597 151.076 354.895 150.517 352.037L80.4155 342.091L104.785 314.525L167.618 328.196C172.482 327.575 177.406 328.761 181.455 331.528C185.504 334.294 188.397 338.45 189.587 343.208C190.776 347.965 190.179 352.994 187.909 357.341C185.638 361.688 181.852 365.051 177.268 366.793Z" fill="#FFB6B6"/>
<path d="M146.012 316.676C144.714 315.029 142.876 313.895 140.822 313.472L112.06 307.492L109.106 306.88C107.39 306.522 105.768 305.805 104.348 304.777C102.927 303.749 101.74 302.432 100.863 300.913C99.954 299.319 99.404 297.545 99.2515 295.716C99.1144 294.053 99.3135 292.38 99.837 290.795L109.804 260.764L116.27 241.278C117.054 238.928 117.517 236.482 117.645 234.008C118.006 227.162 115.887 220.415 111.678 215.003C107.978 210.246 102.846 206.805 97.04 205.19C91.2341 203.574 85.0623 203.868 79.4366 206.03C79.2721 206.089 79.1011 206.155 78.9366 206.22C74.9021 207.831 71.2976 210.358 68.4078 213.602C65.518 216.846 63.4223 220.717 62.2861 224.91L55.2601 250.468L40.7674 303.157C39.3166 308.435 39.0235 313.966 39.9081 319.368C40.7928 324.771 42.8343 329.919 45.893 334.459C48.9516 339 52.9552 342.826 57.6297 345.675C62.3042 348.525 67.5392 350.331 72.9764 350.97L114.402 355.825L133.572 358.075C135.789 358.341 138.025 357.763 139.834 356.455C141.643 355.146 142.893 353.205 143.335 351.016C143.366 350.897 143.39 350.776 143.407 350.654L143.868 347.812L147.769 323.879L147.808 323.636C148.012 322.415 147.957 321.164 147.648 319.966C147.338 318.767 146.781 317.646 146.012 316.676Z" fill="#CACACA"/>
<path d="M221.92 367.56C224.757 368.218 227.704 368.247 230.554 367.644C233.403 367.04 236.086 365.819 238.412 364.066C240.739 362.314 242.653 360.073 244.02 357.501C245.387 354.928 246.173 352.088 246.323 349.179L314.321 329.447L286.308 305.593L226.031 327.988C221.127 328.06 216.42 329.927 212.802 333.238C209.183 336.548 206.905 341.07 206.398 345.948C205.892 350.826 207.192 355.72 210.052 359.703C212.913 363.686 217.136 366.482 221.92 367.56Z" fill="#FFB6B6"/>
<path d="M348.082 285.309L315.741 210.878C313.096 204.767 308.371 199.791 302.406 196.833C300.562 195.925 298.626 195.219 296.63 194.727C296.321 194.648 296.012 194.576 295.703 194.517C291.471 193.593 287.082 193.675 282.887 194.754C279.053 195.739 275.47 197.521 272.371 199.984C269.271 202.447 266.726 205.536 264.901 209.049C264.881 209.078 264.864 209.109 264.849 209.141C262.81 213.085 261.726 217.452 261.684 221.891C261.642 226.33 262.642 230.717 264.605 234.699L265.007 235.502L287.861 281.401C288.641 282.971 289.081 284.687 289.151 286.439C289.221 288.19 288.92 289.937 288.268 291.564C287.616 293.191 286.627 294.661 285.366 295.879C284.106 297.097 282.602 298.035 280.953 298.63L279.348 299.209L250.481 309.636C248.315 310.409 246.533 311.993 245.511 314.053C244.489 316.113 244.306 318.49 245.001 320.682L245.073 320.912L253.165 346.806C253.205 346.924 253.244 347.043 253.29 347.161C253.361 347.384 253.449 347.602 253.553 347.812C254.413 349.741 255.933 351.3 257.84 352.208C259.746 353.116 261.914 353.314 263.954 352.766L279.532 348.654L282.71 347.812L322.938 337.188C328.231 335.789 333.16 333.263 337.386 329.783C341.612 326.302 345.037 321.95 347.424 317.023C349.812 312.096 351.107 306.711 351.221 301.238C351.334 295.764 350.263 290.33 348.082 285.309Z" fill="#CACACA"/>
<path d="M29.7676 347.812C39.0898 359.183 49.1436 369.933 59.8648 379.995H357.2C360.064 380 362.81 381.14 364.835 383.166C366.86 385.192 367.999 387.939 368.002 390.804L368.429 466.149C386.721 457.745 403.851 447.014 419.394 434.223C423.71 430.677 427.891 426.977 431.939 423.125C434.591 420.612 437.178 418.037 439.702 415.401C458.625 395.688 473.948 372.813 484.976 347.812H29.7676Z" fill="#2E294E"/>
<path d="M439.702 415.401C437.183 418.039 434.595 420.614 431.94 423.125H368.646V415.401H439.702Z" fill="white"/>
<path d="M301.959 168.38C301.646 167.803 301.183 167.321 300.619 166.985C300.055 166.649 299.411 166.472 298.755 166.472H83.0806C82.1137 166.475 81.1871 166.86 80.504 167.545C79.8209 168.229 79.4368 169.156 79.436 170.123V299.209H302.406V170.123C302.409 169.513 302.255 168.913 301.959 168.38Z" fill="#2E294E"/>
<path d="M79.2407 295.715V311.644C79.2407 312.304 79.3708 312.958 79.6235 313.568C79.8762 314.178 80.2466 314.733 80.7135 315.2C81.1805 315.667 81.7349 316.037 82.345 316.29C82.9551 316.542 83.609 316.673 84.2693 316.673H166.566V348.11H165.473C165.387 348.11 165.302 348.126 165.223 348.159C165.143 348.192 165.071 348.24 165.011 348.301C164.95 348.362 164.902 348.434 164.869 348.513C164.836 348.592 164.819 348.677 164.819 348.763V350.949C164.819 351.035 164.836 351.12 164.869 351.199C164.902 351.279 164.95 351.351 165.011 351.411C165.071 351.472 165.143 351.52 165.223 351.553C165.302 351.586 165.387 351.603 165.473 351.603H216.561C216.647 351.603 216.732 351.586 216.811 351.553C216.891 351.52 216.963 351.472 217.023 351.411C217.084 351.351 217.132 351.279 217.165 351.199C217.198 351.12 217.215 351.035 217.215 350.949V348.763C217.215 348.677 217.198 348.592 217.165 348.513C217.132 348.434 217.084 348.362 217.023 348.301C216.963 348.24 216.891 348.192 216.811 348.159C216.732 348.126 216.647 348.11 216.561 348.11H215.468V316.673H297.765C298.425 316.673 299.079 316.542 299.689 316.29C300.299 316.037 300.853 315.667 301.32 315.2C301.787 314.733 302.158 314.178 302.41 313.568C302.663 312.958 302.793 312.304 302.793 311.644V295.715H79.2407Z" fill="#2E294E"/>
<path d="M188.317 249.995C199.691 249.995 208.912 240.774 208.912 229.4C208.912 218.025 199.691 208.804 188.317 208.804C176.942 208.804 167.721 218.025 167.721 229.4C167.721 240.774 176.942 249.995 188.317 249.995Z" fill="#D7263D"/>
<path d="M240.791 113.81H237.502C237.502 88.9429 212.891 72.6476 188.063 72.6345C184.452 72.6239 180.849 72.9743 177.307 73.6805C173.32 74.4765 169.183 75.4304 165.117 76.6738C149.085 81.588 134.217 91.0876 134.217 113.81C134.214 118.223 134.775 122.618 135.888 126.889L132.704 127.717C131.523 123.176 130.926 118.503 130.928 113.81C130.928 93.9558 139.079 80.3183 153.157 72.1871C160.558 67.911 169.59 65.1546 179.939 63.8125C184.245 63.2396 188.598 63.1074 192.931 63.4178C221.483 65.4703 240.791 87.364 240.791 113.81Z" fill="#D7263D"/>
<path d="M246.27 115.632L244.974 106.054C244.655 103.635 243.49 101.407 241.685 99.7647C240.527 98.694 239.14 97.9008 237.63 97.4449C236.12 96.989 234.526 96.8824 232.968 97.1333L230.909 97.4162C230.346 97.4903 229.803 97.6756 229.311 97.9613C228.82 98.2471 228.391 98.6275 228.048 99.0805C227.702 99.5321 227.448 100.048 227.303 100.598C227.157 101.147 227.122 101.721 227.199 102.284L230.192 124.349C230.316 125.248 230.719 126.086 231.344 126.744C231.97 127.401 232.787 127.846 233.679 128.013C233.943 128.066 234.212 128.093 234.481 128.092C234.675 128.092 234.869 128.079 235.06 128.053L237.363 127.744C238.767 127.557 240.118 127.086 241.333 126.359C242.548 125.631 243.601 124.663 244.428 123.514C244.606 123.264 244.777 123.007 244.935 122.744C246.168 120.591 246.638 118.086 246.27 115.632Z" fill="#D7263D"/>
<path d="M229.58 97.8175C228.976 98.1109 228.451 98.5439 228.048 99.0806C227.702 99.5321 227.448 100.048 227.303 100.598C227.157 101.147 227.122 101.721 227.199 102.284L230.192 124.349C230.316 125.248 230.719 126.086 231.344 126.744C231.97 127.401 232.787 127.846 233.679 128.013L229.58 97.8175Z" fill="white"/>
<path d="M246.27 115.632L244.974 106.054C244.655 103.635 243.49 101.407 241.685 99.7647L244.665 121.718C244.71 122.07 244.801 122.415 244.935 122.744C246.168 120.591 246.638 118.086 246.27 115.632Z" fill="#3F3D56"/>
<path d="M236.027 122.534C236.928 122.412 237.38 120.27 237.038 117.75C236.696 115.229 235.689 113.285 234.789 113.407C233.889 113.529 233.437 115.671 233.779 118.192C234.121 120.712 235.127 122.656 236.027 122.534Z" fill="#3F3D56"/>
<path d="M234.054 110.692C234.954 110.57 235.407 108.428 235.065 105.908C234.723 103.388 233.716 101.444 232.816 101.566C231.916 101.688 231.464 103.83 231.806 106.35C232.147 108.87 233.154 110.814 234.054 110.692Z" fill="#3F3D56"/>
<path d="M246.553 115.297C247.453 115.175 247.906 113.033 247.564 110.513C247.222 107.993 246.215 106.049 245.315 106.171C244.415 106.293 243.963 108.435 244.305 110.955C244.646 113.475 245.653 115.419 246.553 115.297Z" fill="#3F3D56"/>
<path d="M188.063 72.6344C184.452 72.6239 180.848 72.9743 177.307 73.6805C173.32 74.4765 169.182 75.4304 165.117 76.6737C158.768 76.3645 154.097 74.7199 153.157 72.1871C160.558 67.911 169.59 65.1545 179.938 63.8125C184.245 63.2396 188.598 63.1073 192.931 63.4178C193.39 63.6867 193.786 64.0496 194.095 64.4828C194.403 64.9159 194.617 65.4094 194.721 65.9308C195.03 68.2202 192.418 70.6543 188.063 72.6344Z" fill="#2E294E"/>
<path d="M146.065 136.638L140.999 115.58C140.819 114.82 140.417 114.131 139.846 113.598C139.275 113.066 138.559 112.714 137.789 112.587C137.571 112.553 137.351 112.535 137.131 112.534C136.821 112.535 136.511 112.573 136.21 112.646L134.249 113.119C131.725 113.73 129.547 115.317 128.191 117.532C126.836 119.747 126.414 122.409 127.02 124.935L129.289 134.382C129.807 136.606 131.042 138.598 132.802 140.052C133.087 140.283 133.386 140.496 133.697 140.691C134.8 141.382 136.03 141.845 137.314 142.053C138.599 142.261 139.912 142.209 141.177 141.901L143.131 141.427C143.647 141.307 144.133 141.081 144.558 140.763C145.19 140.302 145.671 139.664 145.939 138.93C146.207 138.195 146.251 137.397 146.065 136.638Z" fill="#D7263D"/>
<path d="M135.446 132.72C136.329 132.507 136.562 130.331 135.967 127.858C135.372 125.385 134.174 123.553 133.291 123.765C132.408 123.978 132.174 126.155 132.769 128.627C133.364 131.1 134.563 132.932 135.446 132.72Z" fill="#3F3D56"/>
<path d="M128.867 134.693C129.75 134.481 129.983 132.304 129.388 129.831C128.793 127.359 127.595 125.527 126.712 125.739C125.829 125.952 125.595 128.128 126.19 130.601C126.785 133.074 127.984 134.906 128.867 134.693Z" fill="#3F3D56"/>
<path d="M146.387 136.559L141.322 115.501C141.125 114.679 140.689 113.933 140.07 113.358C139.451 112.782 138.676 112.402 137.842 112.264L144.756 141.026C145.439 140.526 145.958 139.835 146.249 139.04C146.539 138.245 146.587 137.382 146.387 136.559Z" fill="white"/>
<path d="M128.164 120.764C128.024 120.178 127.762 119.629 127.394 119.152C126.682 120.996 126.552 123.014 127.019 124.935L129.289 134.382C129.807 136.606 131.042 138.598 132.802 140.052L128.164 120.764Z" fill="#3F3D56"/>
</g>
<defs>
<clipPath id="clip0_238_2">
<rect width="559.538" height="487.365" fill="white" transform="translate(0.230957)"/>
</clipPath>
</defs>
</svg>
