<svg width="482" height="49" viewBox="0 0 482 49" fill="none" xmlns="http://www.w3.org/2000/svg">
<path d="M1.376 48C1.248 48 1.14133 48 1.056 48C0.970667 47.9573 0.885334 47.9147 0.8 47.872C0.757333 47.7867 0.714667 47.7013 0.672 47.616C0.672 47.5307 0.672 47.424 0.672 47.296C0.672 44.0107 0.672 40.704 0.672 37.376C0.672 34.048 0.672 30.7413 0.672 27.456C0.672 24.1707 0.672 20.9493 0.672 17.792C0.672 14.592 0.672 11.4987 0.672 8.512C0.672 7.616 0.672 6.74133 0.672 5.888C0.672 4.992 0.672 4.096 0.672 3.2C2.12267 3.2 3.552 3.2 4.96 3.2C6.368 3.2 7.776 3.2 9.184 3.2C9.35467 3.2 9.48267 3.24266 9.568 3.328C9.696 3.37067 9.78133 3.43466 9.824 3.52C9.86667 3.60533 9.888 3.73333 9.888 3.904C9.888 6.89067 9.888 9.89867 9.888 12.928C9.888 15.9573 9.888 19.008 9.888 22.08C9.888 25.1093 9.888 28.1387 9.888 31.168C9.888 34.1973 9.888 37.2053 9.888 40.192H23.456C24.608 40.192 25.568 40.3413 26.336 40.64C27.1467 40.896 27.808 41.344 28.32 41.984C28.832 42.624 29.2587 43.4347 29.6 44.416C29.9413 45.3973 30.2187 46.592 30.432 48H1.376ZM22.304 33.728C23.1573 33.728 23.9893 33.728 24.8 33.728C25.6107 33.728 26.4 33.728 27.168 33.728C27.9787 33.728 28.832 33.728 29.728 33.728C29.8987 33.728 30.0267 33.7707 30.112 33.856C30.1973 33.8987 30.2613 33.9627 30.304 34.048C30.3893 34.1333 30.432 34.2613 30.432 34.432C30.432 35.2427 30.432 36.2453 30.432 37.44C30.432 38.592 30.432 39.8507 30.432 41.216C30.432 42.5387 30.432 43.7973 30.432 44.992C30.432 46.1867 30.432 47.1893 30.432 48C28.3413 47.8293 26.6987 47.4453 25.504 46.848C24.3093 46.2507 23.4773 45.4613 23.008 44.48C22.5387 43.4987 22.304 42.368 22.304 41.088C22.304 40.4907 22.304 39.7227 22.304 38.784C22.304 37.8453 22.304 36.9067 22.304 35.968C22.304 34.9867 22.304 34.24 22.304 33.728ZM47.175 13.568C47.3457 13.568 47.4737 13.6107 47.559 13.696C47.6443 13.7387 47.7083 13.8027 47.751 13.888C47.8363 13.9733 47.879 14.1013 47.879 14.272C47.879 16.1493 47.879 18.0907 47.879 20.096C47.879 22.0587 47.879 24.0213 47.879 25.984C47.879 27.9467 47.879 29.8667 47.879 31.744C47.879 33.5787 47.879 35.328 47.879 36.992C47.879 37.9307 48.1137 38.656 48.583 39.168C49.095 39.68 49.799 39.936 50.695 39.936C51.6763 39.936 52.5937 39.8507 53.447 39.68C54.343 39.4667 55.175 39.168 55.943 38.784C56.7537 38.3573 57.5217 37.824 58.247 37.184C59.015 36.544 59.719 35.776 60.359 34.88V42.432H58.119C57.351 43.7547 56.4977 44.8853 55.559 45.824C54.6203 46.7627 53.5537 47.488 52.359 48C51.207 48.512 49.8203 48.768 48.199 48.768C46.919 48.768 45.7243 48.5333 44.615 48.064C43.5057 47.6373 42.5457 46.9973 41.735 46.144C40.9243 45.2907 40.3057 44.2667 39.879 43.072C39.4523 41.8773 39.239 40.5547 39.239 39.104C39.239 37.184 39.239 35.264 39.239 33.344C39.239 31.424 39.239 29.504 39.239 27.584C39.239 25.664 39.239 23.744 39.239 21.824C39.239 20.4587 39.239 19.0933 39.239 17.728C39.239 16.32 39.239 14.9333 39.239 13.568C40.5617 13.568 41.8843 13.568 43.207 13.568C44.5723 13.568 45.895 13.568 47.175 13.568ZM67.271 13.568C67.4417 13.568 67.5697 13.6107 67.655 13.696C67.7403 13.7387 67.8043 13.8027 67.847 13.888C67.9323 13.9733 67.975 14.1013 67.975 14.272C67.975 17.344 67.975 20.3947 67.975 23.424C67.975 26.4533 67.975 29.504 67.975 32.576C67.975 35.6053 67.975 38.656 67.975 41.728C67.975 42.5387 67.975 43.3067 67.975 44.032C67.975 44.7573 67.975 45.4613 67.975 46.144C67.975 46.8267 67.975 47.4453 67.975 48C67.0363 48 66.0977 48 65.159 48C64.263 48 63.367 48 62.471 48C61.6177 48 60.7857 48 59.975 48C59.847 48 59.719 47.9787 59.591 47.936C59.5057 47.8507 59.4203 47.7653 59.335 47.68C59.2923 47.5947 59.271 47.4667 59.271 47.296C59.271 43.5413 59.271 39.7867 59.271 36.032C59.271 32.2773 59.271 28.544 59.271 24.832C59.271 21.0773 59.271 17.3227 59.271 13.568C60.2097 13.568 61.1057 13.568 61.959 13.568C62.855 13.568 63.7297 13.568 64.583 13.568C65.479 13.568 66.375 13.568 67.271 13.568ZM105.39 26.176C105.39 27.2427 105.39 28.288 105.39 29.312C105.39 30.2933 105.39 31.3173 105.39 32.384C105.39 33.408 105.39 34.4533 105.39 35.52C105.39 36.544 105.39 37.5467 105.39 38.528C105.39 38.8693 105.411 39.168 105.454 39.424C105.539 39.68 105.667 39.8933 105.838 40.064C105.966 40.192 106.137 40.2987 106.35 40.384C106.606 40.4267 106.883 40.448 107.182 40.448C107.31 40.448 107.417 40.448 107.502 40.448C107.63 40.448 107.758 40.448 107.886 40.448H109.102C109.102 41.6 109.102 42.752 109.102 43.904C109.102 45.0133 109.102 46.144 109.102 47.296C109.102 47.5093 109.038 47.68 108.91 47.808C108.782 47.936 108.611 48 108.398 48C108.185 48 107.651 48 106.798 48C105.987 48 105.262 48 104.622 48C103.427 48 102.361 47.808 101.422 47.424C100.483 47.04 99.6513 46.5067 98.926 45.824C98.2007 45.0987 97.646 44.2453 97.262 43.264C96.878 42.2827 96.686 41.1733 96.686 39.936C96.686 38.6133 96.686 37.2693 96.686 35.904C96.686 34.5387 96.686 33.1947 96.686 31.872C96.686 31.1467 96.686 30.464 96.686 29.824C96.686 29.1413 96.686 28.4587 96.686 27.776C96.686 27.0933 96.686 26.4107 96.686 25.728C96.686 24.4907 96.4727 23.5307 96.046 22.848C95.662 22.1227 94.9793 21.6107 93.998 21.312C93.0167 21.0133 91.7153 20.864 90.094 20.864C88.8993 20.864 87.726 20.928 86.574 21.056C85.4647 21.184 84.3553 21.3547 83.246 21.568C82.1793 21.7813 81.0913 22.08 79.982 22.464H78.766C78.766 21.312 78.766 20.16 78.766 19.008C78.766 17.856 78.766 16.7253 78.766 15.616C78.766 15.4453 78.7873 15.3173 78.83 15.232C78.8727 15.1467 78.9153 15.0827 78.958 15.04C79.214 14.784 79.918 14.4853 81.07 14.144C82.2647 13.8027 83.6727 13.5253 85.294 13.312C86.9153 13.056 88.5153 12.928 90.094 12.928C92.782 12.928 95.086 13.184 97.006 13.696C98.926 14.1653 100.505 14.9333 101.742 16C102.979 17.0667 103.897 18.4533 104.494 20.16C105.091 21.824 105.39 23.8293 105.39 26.176ZM84.91 38.272C84.91 39.168 85.1447 39.8507 85.614 40.32C86.126 40.7467 86.894 40.96 87.918 40.96C89.07 40.96 90.2007 40.832 91.31 40.576C92.4193 40.32 93.5073 39.8933 94.574 39.296C95.6833 38.6987 96.7927 37.9307 97.902 36.992V42.496H95.982C95.4273 43.776 94.638 44.8853 93.614 45.824C92.6327 46.72 91.4807 47.424 90.158 47.936C88.8353 48.4053 87.3847 48.64 85.806 48.64C83.8433 48.64 82.1367 48.256 80.686 47.488C79.278 46.72 78.19 45.6533 77.422 44.288C76.654 42.88 76.27 41.2587 76.27 39.424V37.184C76.27 35.776 76.5047 34.5173 76.974 33.408C77.4433 32.2987 78.1047 31.3387 78.958 30.528C79.854 29.7173 80.9207 29.0987 82.158 28.672C83.3953 28.2027 84.782 27.968 86.318 27.968C87.8113 27.968 89.262 27.968 90.67 27.968C92.1207 27.968 93.486 27.968 94.766 27.968C96.0887 27.968 97.326 27.968 98.478 27.968C98.862 27.968 99.1393 28.3093 99.31 28.992C99.5233 29.6747 99.6513 30.4427 99.694 31.296C99.7367 32.1067 99.758 32.7893 99.758 33.344C98.3927 33.344 97.07 33.344 95.79 33.344C94.51 33.344 93.2087 33.344 91.886 33.344C90.606 33.344 89.2833 33.344 87.918 33.344C87.406 33.344 86.958 33.408 86.574 33.536C86.2327 33.664 85.934 33.856 85.678 34.112C85.4647 34.368 85.2727 34.6667 85.102 35.008C84.974 35.3067 84.91 35.648 84.91 36.032V38.272ZM145.237 48C143.829 48 142.506 48 141.269 48C140.074 48 138.752 48 137.301 48C137.173 48 137.045 47.9787 136.917 47.936C136.832 47.8507 136.746 47.7653 136.661 47.68C136.618 47.5947 136.597 47.4667 136.597 47.296C136.597 44.7787 136.597 42.2613 136.597 39.744C136.597 37.184 136.597 34.6453 136.597 32.128C136.597 29.6107 136.597 27.0933 136.597 24.576C136.597 23.424 136.341 22.5707 135.829 22.016C135.317 21.4613 134.506 21.184 133.397 21.184C132.672 21.184 131.861 21.312 130.965 21.568C130.112 21.7813 129.237 22.1227 128.341 22.592C127.488 23.0187 126.656 23.5733 125.845 24.256C125.034 24.9387 124.288 25.7493 123.605 26.688V19.136H125.845C126.698 17.856 127.637 16.7467 128.661 15.808C129.728 14.8693 130.88 14.144 132.117 13.632C133.397 13.0773 134.762 12.8 136.213 12.8C137.578 12.8 138.816 13.0347 139.925 13.504C141.077 13.9307 142.037 14.592 142.805 15.488C143.616 16.3413 144.213 17.3867 144.597 18.624C145.024 19.8613 145.237 21.248 145.237 22.784C145.237 24.832 145.237 26.9013 145.237 28.992C145.237 31.0827 145.237 33.1733 145.237 35.264C145.237 37.3547 145.237 39.4667 145.237 41.6C145.237 42.6667 145.237 43.7333 145.237 44.8C145.237 45.8667 145.237 46.9333 145.237 48ZM124.629 48C123.69 48 122.794 48 121.941 48C121.13 48 120.277 48 119.381 48C118.528 48 117.632 48 116.693 48C116.565 48 116.458 48 116.373 48C116.288 47.9573 116.202 47.9147 116.117 47.872C116.074 47.7867 116.032 47.7013 115.989 47.616C115.989 47.5307 115.989 47.424 115.989 47.296C115.989 44.992 115.989 42.7093 115.989 40.448C115.989 38.144 115.989 35.8613 115.989 33.6C115.989 31.296 115.989 29.0133 115.989 26.752C115.989 24.448 115.989 22.144 115.989 19.84C115.989 18.6453 115.989 17.5147 115.989 16.448C115.989 15.3813 115.989 14.4213 115.989 13.568C117.056 13.568 118.016 13.568 118.869 13.568C119.765 13.568 120.618 13.568 121.429 13.568C122.282 13.568 123.114 13.568 123.925 13.568C124.096 13.568 124.224 13.6107 124.309 13.696C124.394 13.7387 124.458 13.8027 124.501 13.888C124.586 13.9733 124.629 14.1013 124.629 14.272C124.629 17.984 124.629 21.7173 124.629 25.472C124.629 29.2267 124.629 32.9813 124.629 36.736C124.629 40.4907 124.629 44.2453 124.629 48ZM197.283 30.08H208.099C208.782 30.08 209.443 30.08 210.083 30.08C210.766 30.08 211.406 30.08 212.003 30.08L214.243 29.504L215.139 33.536L216.035 37.632H197.859C197.731 37.632 197.603 37.6107 197.475 37.568C197.39 37.4827 197.304 37.3973 197.219 37.312C197.176 37.184 197.155 37.056 197.155 36.928L197.283 30.08ZM198.115 48C196.792 48 195.448 48 194.083 48C192.76 48 191.416 48 190.051 48C189.923 48 189.795 47.9787 189.667 47.936C189.582 47.8507 189.518 47.7653 189.475 47.68C189.475 47.552 189.496 47.3813 189.539 47.168C189.752 46.1867 190.072 44.8 190.499 43.008C190.926 41.216 191.416 39.168 191.971 36.864C192.526 34.5173 193.123 32.0427 193.763 29.44C194.403 26.8373 195.022 24.2347 195.619 21.632C196.259 18.9867 196.856 16.4693 197.411 14.08C198.008 11.648 198.52 9.49333 198.947 7.616C199.416 5.73867 199.8 4.24533 200.099 3.136C202.531 3.136 204.835 3.136 207.011 3.136C209.23 3.136 211.363 3.136 213.411 3.136C213.582 3.136 213.71 3.17866 213.795 3.264C213.88 3.30666 213.944 3.37067 213.987 3.456C214.072 3.54133 214.115 3.66933 214.115 3.84C214.755 6.22933 215.395 8.78933 216.035 11.52C216.718 14.208 217.4 17.0453 218.083 20.032C218.808 22.976 219.555 26.048 220.323 29.248C221.091 32.4053 221.88 35.6907 222.691 39.104C223.075 40.512 223.438 41.9627 223.779 43.456C224.163 44.9493 224.526 46.464 224.867 48C223.502 48 222.158 48 220.835 48C219.512 48 218.232 48 216.995 48C216.739 48 216.504 47.9573 216.291 47.872C216.12 47.7867 215.971 47.5947 215.843 47.296C215.758 46.9973 215.63 46.528 215.459 45.888C214.606 42.2187 213.816 38.8693 213.091 35.84C212.366 32.768 211.726 29.9947 211.171 27.52C210.616 25.0027 210.104 22.6987 209.635 20.608C209.208 18.5173 208.824 16.5547 208.483 14.72C208.142 12.8853 207.843 11.136 207.587 9.472L209.507 10.944H204.707L206.627 9.472C206.371 11.136 206.072 12.8853 205.731 14.72C205.39 16.512 204.984 18.4747 204.515 20.608C204.088 22.6987 203.555 25.0667 202.915 27.712C202.275 30.3147 201.55 33.3013 200.739 36.672C199.971 40 199.096 43.776 198.115 48ZM260.362 48C258.954 48 257.631 48 256.394 48C255.199 48 253.877 48 252.426 48C252.298 48 252.17 47.9787 252.042 47.936C251.957 47.8507 251.871 47.7653 251.786 47.68C251.743 47.5947 251.722 47.4667 251.722 47.296C251.722 44.7787 251.722 42.2613 251.722 39.744C251.722 37.184 251.722 34.6453 251.722 32.128C251.722 29.6107 251.722 27.0933 251.722 24.576C251.722 23.424 251.466 22.5707 250.954 22.016C250.442 21.4613 249.631 21.184 248.522 21.184C247.797 21.184 246.986 21.312 246.09 21.568C245.237 21.7813 244.362 22.1227 243.466 22.592C242.613 23.0187 241.781 23.5733 240.97 24.256C240.159 24.9387 239.413 25.7493 238.73 26.688V19.136H240.97C241.823 17.856 242.762 16.7467 243.786 15.808C244.853 14.8693 246.005 14.144 247.242 13.632C248.522 13.0773 249.887 12.8 251.338 12.8C252.703 12.8 253.941 13.0347 255.05 13.504C256.202 13.9307 257.162 14.592 257.93 15.488C258.741 16.3413 259.338 17.3867 259.722 18.624C260.149 19.8613 260.362 21.248 260.362 22.784C260.362 24.832 260.362 26.9013 260.362 28.992C260.362 31.0827 260.362 33.1733 260.362 35.264C260.362 37.3547 260.362 39.4667 260.362 41.6C260.362 42.6667 260.362 43.7333 260.362 44.8C260.362 45.8667 260.362 46.9333 260.362 48ZM239.754 48C238.815 48 237.919 48 237.066 48C236.255 48 235.402 48 234.506 48C233.653 48 232.757 48 231.818 48C231.69 48 231.583 48 231.498 48C231.413 47.9573 231.327 47.9147 231.242 47.872C231.199 47.7867 231.157 47.7013 231.114 47.616C231.114 47.5307 231.114 47.424 231.114 47.296C231.114 44.992 231.114 42.7093 231.114 40.448C231.114 38.144 231.114 35.8613 231.114 33.6C231.114 31.296 231.114 29.0133 231.114 26.752C231.114 24.448 231.114 22.144 231.114 19.84C231.114 18.6453 231.114 17.5147 231.114 16.448C231.114 15.3813 231.114 14.4213 231.114 13.568C232.181 13.568 233.141 13.568 233.994 13.568C234.89 13.568 235.743 13.568 236.554 13.568C237.407 13.568 238.239 13.568 239.05 13.568C239.221 13.568 239.349 13.6107 239.434 13.696C239.519 13.7387 239.583 13.8027 239.626 13.888C239.711 13.9733 239.754 14.1013 239.754 14.272C239.754 17.984 239.754 21.7173 239.754 25.472C239.754 29.2267 239.754 32.9813 239.754 36.736C239.754 40.4907 239.754 44.2453 239.754 48ZM278.961 12.8C280.454 12.8 281.777 13.0347 282.929 13.504C284.081 13.9307 285.105 14.5493 286.001 15.36C286.897 16.1707 287.665 17.152 288.305 18.304H290.481V25.92C289.201 24.3413 287.814 23.168 286.321 22.4C284.828 21.5893 283.334 21.184 281.841 21.184C280.817 21.184 279.942 21.3973 279.217 21.824C278.492 22.2507 277.937 22.8907 277.553 23.744C277.169 24.5547 276.977 25.5573 276.977 26.752V34.752C276.977 35.776 277.084 36.6507 277.297 37.376C277.553 38.1013 277.894 38.656 278.321 39.04C278.705 39.4667 279.196 39.7867 279.793 40C280.39 40.1707 281.073 40.256 281.841 40.256C282.822 40.256 283.804 40.1067 284.785 39.808C285.766 39.4667 286.726 38.9333 287.665 38.208C288.646 37.4827 289.585 36.544 290.481 35.392V43.008H288.305C287.622 44.16 286.79 45.1627 285.809 46.016C284.87 46.8693 283.825 47.5307 282.673 48C281.521 48.4267 280.284 48.64 278.961 48.64C277.34 48.64 275.868 48.3627 274.545 47.808C273.265 47.2533 272.156 46.4427 271.217 45.376C270.321 44.3093 269.617 43.008 269.105 41.472C268.593 39.936 268.337 38.1867 268.337 36.224V25.344C268.337 23.3813 268.593 21.632 269.105 20.096C269.617 18.5173 270.321 17.1947 271.217 16.128C272.156 15.0613 273.286 14.2507 274.609 13.696C275.932 13.0987 277.382 12.8 278.961 12.8ZM297.457 -3.8147e-06C297.628 -3.8147e-06 297.756 0.0426636 297.841 0.127998C297.926 0.170664 297.99 0.234664 298.033 0.319996C298.118 0.405331 298.161 0.533332 298.161 0.703999C298.161 3.86133 298.161 7.06133 298.161 10.304C298.161 13.504 298.161 16.7253 298.161 19.968C298.161 23.168 298.161 26.3467 298.161 29.504C298.161 32.6613 298.161 35.7973 298.161 38.912C298.161 40.4907 298.161 42.0267 298.161 43.52C298.161 45.0133 298.161 46.5067 298.161 48C297.521 48 296.86 48 296.177 48C295.537 48 294.876 48 294.193 48C293.51 48 292.828 48 292.145 48C291.505 48 290.865 48 290.225 48C290.097 48 289.969 47.9787 289.841 47.936C289.756 47.8507 289.67 47.7653 289.585 47.68C289.542 47.5947 289.521 47.4667 289.521 47.296C289.521 43.8827 289.521 40.4693 289.521 37.056C289.521 33.6427 289.521 30.2507 289.521 26.88C289.521 23.4667 289.521 20.0533 289.521 16.64C289.521 13.2267 289.521 9.81333 289.521 6.4C289.521 5.33333 289.521 4.26667 289.521 3.2C289.521 2.13333 289.521 1.06666 289.521 -3.8147e-06C290.161 -3.8147e-06 290.801 -3.8147e-06 291.441 -3.8147e-06C292.124 -3.8147e-06 292.806 -3.8147e-06 293.489 -3.8147e-06C294.172 -3.8147e-06 294.833 -3.8147e-06 295.473 -3.8147e-06C296.156 -3.8147e-06 296.817 -3.8147e-06 297.457 -3.8147e-06ZM314.84 43.776V39.424C314.84 38.6987 314.84 37.9947 314.84 37.312C314.84 36.5867 314.84 35.8613 314.84 35.136C314.84 34.368 314.84 33.6427 314.84 32.96C314.84 31.6373 314.84 30.3147 314.84 28.992C314.84 27.6693 314.84 26.3467 314.84 25.024C314.84 23.7013 314.84 22.4 314.84 21.12H313.624C312.728 21.12 311.789 21.12 310.808 21.12C309.869 21.12 308.973 21.12 308.12 21.12C307.907 21.12 307.736 21.056 307.608 20.928C307.48 20.8 307.416 20.6293 307.416 20.416C307.416 19.264 307.416 18.1333 307.416 17.024C307.416 15.872 307.416 14.72 307.416 13.568C307.885 13.568 308.44 13.568 309.08 13.568C309.72 13.568 310.381 13.568 311.064 13.568C311.789 13.568 312.536 13.568 313.304 13.568C314.072 13.568 314.883 13.568 315.736 13.568C316.589 13.568 317.443 13.568 318.296 13.568C319.192 13.568 320.067 13.568 320.92 13.568C320.92 13.568 321.005 13.824 321.176 14.336C321.347 14.848 321.56 15.488 321.816 16.256C322.072 17.024 322.328 17.8133 322.584 18.624C322.84 19.392 323.053 20.096 323.224 20.736C323.395 21.3333 323.48 21.696 323.48 21.824C323.48 23.616 323.48 25.4293 323.48 27.264C323.48 29.056 323.48 30.8693 323.48 32.704C323.48 34.5387 323.48 36.3947 323.48 38.272C323.48 40.1493 323.48 42.0267 323.48 43.904L314.84 43.776ZM321.624 20.16H323.928C325.037 18.0267 326.467 16.2987 328.216 14.976C329.965 13.6107 332.12 12.928 334.68 12.928C335.704 12.928 336.515 13.0133 337.112 13.184C337.752 13.3547 338.2 13.568 338.456 13.824C338.541 13.8667 338.584 13.952 338.584 14.08C338.627 14.1653 338.648 14.2933 338.648 14.464C338.648 15.872 338.648 17.2587 338.648 18.624C338.648 19.9893 338.648 21.376 338.648 22.784H337.432C336.493 22.4853 335.64 22.2933 334.872 22.208C334.147 22.08 333.293 22.016 332.312 22.016C331.16 22.016 329.965 22.1867 328.728 22.528C327.533 22.8693 326.403 23.3813 325.336 24.064C324.269 24.704 323.288 25.5573 322.392 26.624L321.624 20.16ZM307.032 40.448H333.4C333.613 40.448 333.763 40.4907 333.848 40.576C333.933 40.6187 333.997 40.6827 334.04 40.768C334.125 40.8533 334.168 40.9813 334.168 41.152C334.168 41.9627 334.168 42.7307 334.168 43.456C334.168 44.1813 334.168 44.928 334.168 45.696C334.168 46.4213 334.168 47.1893 334.168 48H307.736C307.523 48 307.352 47.936 307.224 47.808C307.096 47.68 307.032 47.5093 307.032 47.296C307.032 46.4853 307.032 45.7173 307.032 44.992C307.032 44.224 307.032 43.4773 307.032 42.752C307.032 42.0267 307.032 41.2587 307.032 40.448ZM374.015 26.176C374.015 27.2427 374.015 28.288 374.015 29.312C374.015 30.2933 374.015 31.3173 374.015 32.384C374.015 33.408 374.015 34.4533 374.015 35.52C374.015 36.544 374.015 37.5467 374.015 38.528C374.015 38.8693 374.036 39.168 374.079 39.424C374.164 39.68 374.292 39.8933 374.463 40.064C374.591 40.192 374.762 40.2987 374.975 40.384C375.231 40.4267 375.508 40.448 375.807 40.448C375.935 40.448 376.042 40.448 376.127 40.448C376.255 40.448 376.383 40.448 376.511 40.448H377.727C377.727 41.6 377.727 42.752 377.727 43.904C377.727 45.0133 377.727 46.144 377.727 47.296C377.727 47.5093 377.663 47.68 377.535 47.808C377.407 47.936 377.236 48 377.023 48C376.81 48 376.276 48 375.423 48C374.612 48 373.887 48 373.247 48C372.052 48 370.986 47.808 370.047 47.424C369.108 47.04 368.276 46.5067 367.551 45.824C366.826 45.0987 366.271 44.2453 365.887 43.264C365.503 42.2827 365.311 41.1733 365.311 39.936C365.311 38.6133 365.311 37.2693 365.311 35.904C365.311 34.5387 365.311 33.1947 365.311 31.872C365.311 31.1467 365.311 30.464 365.311 29.824C365.311 29.1413 365.311 28.4587 365.311 27.776C365.311 27.0933 365.311 26.4107 365.311 25.728C365.311 24.4907 365.098 23.5307 364.671 22.848C364.287 22.1227 363.604 21.6107 362.623 21.312C361.642 21.0133 360.34 20.864 358.719 20.864C357.524 20.864 356.351 20.928 355.199 21.056C354.09 21.184 352.98 21.3547 351.871 21.568C350.804 21.7813 349.716 22.08 348.607 22.464H347.391C347.391 21.312 347.391 20.16 347.391 19.008C347.391 17.856 347.391 16.7253 347.391 15.616C347.391 15.4453 347.412 15.3173 347.455 15.232C347.498 15.1467 347.54 15.0827 347.583 15.04C347.839 14.784 348.543 14.4853 349.695 14.144C350.89 13.8027 352.298 13.5253 353.919 13.312C355.54 13.056 357.14 12.928 358.719 12.928C361.407 12.928 363.711 13.184 365.631 13.696C367.551 14.1653 369.13 14.9333 370.367 16C371.604 17.0667 372.522 18.4533 373.119 20.16C373.716 21.824 374.015 23.8293 374.015 26.176ZM353.535 38.272C353.535 39.168 353.77 39.8507 354.239 40.32C354.751 40.7467 355.519 40.96 356.543 40.96C357.695 40.96 358.826 40.832 359.935 40.576C361.044 40.32 362.132 39.8933 363.199 39.296C364.308 38.6987 365.418 37.9307 366.527 36.992V42.496H364.607C364.052 43.776 363.263 44.8853 362.239 45.824C361.258 46.72 360.106 47.424 358.783 47.936C357.46 48.4053 356.01 48.64 354.431 48.64C352.468 48.64 350.762 48.256 349.311 47.488C347.903 46.72 346.815 45.6533 346.047 44.288C345.279 42.88 344.895 41.2587 344.895 39.424V37.184C344.895 35.776 345.13 34.5173 345.599 33.408C346.068 32.2987 346.73 31.3387 347.583 30.528C348.479 29.7173 349.546 29.0987 350.783 28.672C352.02 28.2027 353.407 27.968 354.943 27.968C356.436 27.968 357.887 27.968 359.295 27.968C360.746 27.968 362.111 27.968 363.391 27.968C364.714 27.968 365.951 27.968 367.103 27.968C367.487 27.968 367.764 28.3093 367.935 28.992C368.148 29.6747 368.276 30.4427 368.319 31.296C368.362 32.1067 368.383 32.7893 368.383 33.344C367.018 33.344 365.695 33.344 364.415 33.344C363.135 33.344 361.834 33.344 360.511 33.344C359.231 33.344 357.908 33.344 356.543 33.344C356.031 33.344 355.583 33.408 355.199 33.536C354.858 33.664 354.559 33.856 354.303 34.112C354.09 34.368 353.898 34.6667 353.727 35.008C353.599 35.3067 353.535 35.648 353.535 36.032V38.272ZM394.086 12.8C395.579 12.8 396.902 13.0347 398.054 13.504C399.206 13.9307 400.23 14.5493 401.126 15.36C402.022 16.1707 402.79 17.152 403.43 18.304H405.606V25.92C404.326 24.3413 402.939 23.168 401.446 22.4C399.953 21.5893 398.459 21.184 396.966 21.184C395.942 21.184 395.067 21.3973 394.342 21.824C393.617 22.2507 393.062 22.8907 392.678 23.744C392.294 24.5547 392.102 25.5573 392.102 26.752V34.752C392.102 35.776 392.209 36.6507 392.422 37.376C392.678 38.1013 393.019 38.656 393.446 39.04C393.83 39.4667 394.321 39.7867 394.918 40C395.515 40.1707 396.198 40.256 396.966 40.256C397.947 40.256 398.929 40.1067 399.91 39.808C400.891 39.4667 401.851 38.9333 402.79 38.208C403.771 37.4827 404.71 36.544 405.606 35.392V43.008H403.43C402.747 44.16 401.915 45.1627 400.934 46.016C399.995 46.8693 398.95 47.5307 397.798 48C396.646 48.4267 395.409 48.64 394.086 48.64C392.465 48.64 390.993 48.3627 389.67 47.808C388.39 47.2533 387.281 46.4427 386.342 45.376C385.446 44.3093 384.742 43.008 384.23 41.472C383.718 39.936 383.462 38.1867 383.462 36.224V25.344C383.462 23.3813 383.718 21.632 384.23 20.096C384.742 18.5173 385.446 17.1947 386.342 16.128C387.281 15.0613 388.411 14.2507 389.734 13.696C391.057 13.0987 392.507 12.8 394.086 12.8ZM412.582 -3.8147e-06C412.753 -3.8147e-06 412.881 0.0426636 412.966 0.127998C413.051 0.170664 413.115 0.234664 413.158 0.319996C413.243 0.405331 413.286 0.533332 413.286 0.703999C413.286 3.86133 413.286 7.06133 413.286 10.304C413.286 13.504 413.286 16.7253 413.286 19.968C413.286 23.168 413.286 26.3467 413.286 29.504C413.286 32.6613 413.286 35.7973 413.286 38.912C413.286 40.4907 413.286 42.0267 413.286 43.52C413.286 45.0133 413.286 46.5067 413.286 48C412.646 48 411.985 48 411.302 48C410.662 48 410.001 48 409.318 48C408.635 48 407.953 48 407.27 48C406.63 48 405.99 48 405.35 48C405.222 48 405.094 47.9787 404.966 47.936C404.881 47.8507 404.795 47.7653 404.71 47.68C404.667 47.5947 404.646 47.4667 404.646 47.296C404.646 43.8827 404.646 40.4693 404.646 37.056C404.646 33.6427 404.646 30.2507 404.646 26.88C404.646 23.4667 404.646 20.0533 404.646 16.64C404.646 13.2267 404.646 9.81333 404.646 6.4C404.646 5.33333 404.646 4.26667 404.646 3.2C404.646 2.13333 404.646 1.06666 404.646 -3.8147e-06C405.286 -3.8147e-06 405.926 -3.8147e-06 406.566 -3.8147e-06C407.249 -3.8147e-06 407.931 -3.8147e-06 408.614 -3.8147e-06C409.297 -3.8147e-06 409.958 -3.8147e-06 410.598 -3.8147e-06C411.281 -3.8147e-06 411.942 -3.8147e-06 412.582 -3.8147e-06ZM437.453 12.8C440.354 12.8 442.872 13.3973 445.005 14.592C447.181 15.7867 448.866 17.4507 450.061 19.584C451.256 21.7173 451.853 24.2133 451.853 27.072V32.384C451.853 32.512 451.832 32.64 451.789 32.768C451.746 32.8533 451.661 32.9173 451.533 32.96C451.448 33.0027 451.341 33.024 451.213 33.024H436.493C435.768 33.024 435.021 33.024 434.253 33.024C433.528 33.024 432.802 33.024 432.077 33.024H429.453L429.261 27.648H443.469C443.469 27.4773 443.469 27.328 443.469 27.2C443.469 27.072 443.469 26.9227 443.469 26.752C443.469 25.5147 443.341 24.4693 443.085 23.616C442.829 22.72 442.424 22.016 441.869 21.504C441.4 20.992 440.802 20.6293 440.077 20.416C439.352 20.2027 438.477 20.096 437.453 20.096C435.32 20.096 433.72 20.6293 432.653 21.696C431.629 22.72 431.117 24.4053 431.117 26.752V34.56C431.117 35.584 431.245 36.5013 431.501 37.312C431.8 38.08 432.205 38.7413 432.717 39.296C433.4 39.9787 434.296 40.4693 435.405 40.768C436.557 41.0667 437.88 41.216 439.373 41.216C440.909 41.216 442.274 41.152 443.469 41.024C444.664 40.8533 445.773 40.64 446.797 40.384C447.821 40.0853 448.824 39.7653 449.805 39.424H451.021C451.021 40.4907 451.021 41.5787 451.021 42.688C451.021 43.7547 451.021 44.8427 451.021 45.952C451.021 46.0373 451 46.1227 450.957 46.208C450.914 46.2933 450.85 46.3787 450.765 46.464C450.424 46.8053 449.656 47.1467 448.461 47.488C447.309 47.8293 445.901 48.128 444.237 48.384C442.616 48.64 440.952 48.768 439.245 48.768C436.472 48.768 434.018 48.448 431.885 47.808C429.794 47.1253 428.045 46.1653 426.637 44.928C425.272 43.6907 424.226 42.1973 423.501 40.448C422.818 38.656 422.477 36.6507 422.477 34.432V27.136C422.477 24.96 422.818 22.9973 423.501 21.248C424.226 19.4987 425.25 18.0053 426.573 16.768C427.896 15.488 429.474 14.5067 431.309 13.824C433.144 13.1413 435.192 12.8 437.453 12.8Z" fill="#F5F7FA"/>
<path d="M481.716 48.576C480.521 48.576 479.284 48.576 478.004 48.576C476.724 48.576 475.444 48.576 474.164 48.576C472.884 48.576 471.625 48.576 470.388 48.576C470.26 48.576 470.132 48.5333 470.004 48.448C469.919 48.4053 469.833 48.32 469.748 48.192C469.705 48.1067 469.684 48 469.684 47.872V36.544C470.921 36.544 472.18 36.544 473.46 36.544C474.74 36.544 476.02 36.544 477.3 36.544C478.58 36.544 479.817 36.544 481.012 36.544C481.183 36.544 481.311 36.5867 481.396 36.672C481.481 36.7147 481.545 36.7787 481.588 36.864C481.673 36.9493 481.716 37.0773 481.716 37.248V48.576Z" fill="#D7263D"/>
</svg>
